<svg width="241" height="357" viewBox="0 0 241 357" fill="none" xmlns="http://www.w3.org/2000/svg">
<path d="M197.092 227.283C197.092 263.49 276.824 353.236 286.453 361.71C278.75 392.216 208.775 377.503 174.751 366.332C173.596 365.562 152.796 315.489 144.707 310.867C136.619 306.245 111.967 294.689 100.412 274.66C88.8566 254.631 65.3607 206.483 61.1238 200.706C56.8868 194.928 19.5245 179.521 18.369 176.054C11.8209 173.358 0.265594 165.269 1.03595 159.106C1.8063 152.944 12.9765 147.551 43.0204 159.106C73.0643 170.662 51.8795 140.618 49.9536 138.307C48.0277 135.996 38.3982 134.07 36.8575 131.374C33.0057 130.988 21.8356 131.759 21.0652 125.981C20.2949 120.203 25.3022 106.722 34.1613 104.026C41.2486 101.869 57.914 105.952 65.3607 108.263L46.8722 94.0112C38.2698 93.626 21.0652 90.3905 21.0652 80.53C21.0652 68.2043 33.7761 69.3598 36.8575 69.745C39.9389 70.1302 51.8795 69.3595 56.5016 71.2854C61.1238 73.2113 69.9829 70.5148 73.0643 73.5965C76.1457 76.6781 85.0048 57.419 82.6938 55.1079C80.3827 52.7969 63.82 31.2269 75.3754 24.2937C84.6196 18.7471 95.9182 28.9158 100.412 34.6935L158.574 112.114L171.402 118.277C176.438 94.4486 189.089 75.6661 200.558 76.6781C213.654 77.8337 203.255 93.626 200.558 104.026C197.862 114.426 200.173 161.803 200.558 179.521C200.944 197.239 197.092 191.076 197.092 227.283Z" fill="#101010"/>
<path d="M162.811 161.803C165.122 159.106 166.663 157.18 169.744 128.677C170.127 125.137 170.688 121.656 171.402 118.277M36.8575 131.374C38.3982 134.07 48.0277 135.996 49.9536 138.307C51.8795 140.618 73.0643 170.662 43.0204 159.106C12.9765 147.551 1.80631 152.944 1.03595 159.106C0.265593 165.269 11.8209 173.358 18.369 176.054C19.5245 179.521 56.8868 194.928 61.1238 200.706C65.3607 206.483 88.8566 254.631 100.412 274.66C111.967 294.689 136.619 306.245 144.707 310.867C152.796 315.489 173.596 365.562 174.751 366.332C208.775 377.503 278.75 392.216 286.453 361.71C276.824 353.236 197.092 263.49 197.092 227.283C197.092 191.076 200.944 197.239 200.558 179.521C200.173 161.803 197.862 114.426 200.558 104.026C203.255 93.626 213.654 77.8337 200.558 76.6781C189.089 75.6661 176.438 94.4486 171.402 118.277M36.8575 131.374C33.0057 130.988 21.8356 131.759 21.0652 125.981C20.2949 120.203 25.3022 106.722 34.1613 104.026C41.2486 101.869 57.914 105.952 65.3607 108.263L46.8722 94.0112C38.2698 93.626 21.0652 90.3905 21.0652 80.53C21.0652 68.2043 33.7761 69.3598 36.8575 69.745M36.8575 131.374C38.7519 129.416 42.6367 124.9 43.0204 122.5M36.8575 69.745C39.939 70.1302 51.8795 69.3595 56.5016 71.2854C61.1238 73.2113 69.9829 70.5148 73.0643 73.5965C76.1457 76.6781 85.0048 57.419 82.6938 55.1079C80.3827 52.7969 63.82 31.2269 75.3754 24.2937C84.6196 18.7471 95.9182 28.9158 100.412 34.6935L158.574 112.114L171.402 118.277M36.8575 69.745C37.7384 70.561 39.6 72.4737 40 73.5965" stroke="#A6A6A5"/>
<path d="M198.634 49.7154C200.483 41.3955 196.58 33.4095 194.397 30.4565C184.126 26.2195 162.196 17.2834 156.65 15.4345C149.717 13.1234 110.428 -0.742993 102.725 1.1829C96.5619 2.72361 93.4805 9.78522 92.7102 13.1234C83.9794 34.9502 65.2854 81.7622 60.3552 94.3961C54.1923 110.188 19.9114 200.705 21.067 208.409C21.9914 214.572 35.0618 219.964 41.4814 221.89C60.8687 230.364 102.417 247.158 113.51 246.542C127.376 245.771 144.324 196.468 154.339 166.424C157.71 156.31 163.57 140.957 169.949 124.642C171.287 119.635 171.485 115.541 173.212 111.161C175.138 103.843 176.294 101.146 179.76 94.5983C181.301 91.1317 183.612 88.4355 185.584 84.9689C192.387 67.6735 197.738 53.7465 198.634 49.7154Z" fill="#101010" stroke="white"/>
<path d="M286.453 361.71C276.824 353.236 197.092 263.489 197.092 227.282C197.092 191.076 200.944 197.239 200.558 179.52C200.173 161.802 197.862 114.425 200.558 104.025C203.255 93.6256 213.654 77.8333 200.558 76.6777C189.089 75.6657 176.438 94.4482 171.402 118.277C170.688 121.656 170.127 125.137 169.744 128.677" stroke="#A6A6A5"/>
<path d="M83.8083 116.146C87.2031 117.309 90.0562 116.439 91.4643 114.077L88.024 112.639C87.2819 113.553 86.1125 113.761 84.8439 113.326C82.9411 112.675 82.1665 111.002 82.8672 108.956L82.8703 108.947L92.2149 112.148L92.5729 111.103C94.1702 106.439 92.1367 103.168 88.5096 101.925C84.4716 100.542 80.8718 102.513 79.4214 106.748C77.9311 111.098 79.5827 114.699 83.8083 116.146ZM83.6781 106.589C84.2941 105.053 85.9106 104.209 87.5991 104.788C89.2518 105.354 89.9914 106.925 89.4403 108.562L83.6781 106.589Z" fill="#F9DF5F"/>
<path d="M107.143 109.276L110.851 110.546C111.914 107.267 110.005 104.097 105.931 102.702C101.92 101.328 98.222 102.537 97.1015 105.866C96.1685 108.561 97.5419 110.759 100.379 112.559L102.2 113.741C104.027 114.906 104.939 115.857 104.525 117.093C104.057 118.43 102.477 118.907 100.511 118.234C98.5013 117.545 97.3723 116.121 97.8745 114.246L94.1313 112.964C92.874 116.955 95.0052 119.971 99.4452 121.492C103.912 123.022 107.27 121.787 108.426 118.44C109.461 115.39 107.719 112.987 104.783 111.183L103.274 110.227C101.809 109.316 100.68 108.27 101.157 106.966C101.561 105.787 102.903 105.278 104.797 105.927C106.646 106.56 107.493 107.789 107.143 109.276Z" fill="#F9DF5F"/>
<path d="M119.373 107.586L115.505 106.261L109.238 124.557L113.106 125.882L119.373 107.586Z" fill="#F9DF5F"/>
<path d="M122.556 108.676L116.289 126.972L120.041 128.257L124.135 116.304L124.287 116.356L124.958 129.842L127.513 130.717L136.297 120.52L136.449 120.572L132.369 132.48L136.122 133.765L142.389 115.469L137.618 113.835L128.369 124.402L128.154 124.329L127.326 110.31L122.556 108.676Z" fill="#F9DF5F"/>
</svg>
