<svg width="1365" height="359" viewBox="0 0 1365 359" fill="none" xmlns="http://www.w3.org/2000/svg">
<path opacity="0.7" d="M387.977 124.995L243.438 160.756L192.506 270.79L83.7578 342.771L1183.17 346.439L1160.68 221.733L1038.17 195.6L971.637 82.8147L845.452 101.612L750.47 18.628L698.62 69.9774L494.889 37.4255M387.977 124.995L509.114 103.446L494.889 37.4255M387.977 124.995L494.889 37.4255" stroke="#F9DF5F" stroke-dasharray="15 15"/>
<path d="M644.139 62.1833C308.043 62.1833 145.194 287.754 105.781 400.539H1231.8C1175.96 287.754 980.235 62.1833 644.139 62.1833Z" fill="#101010" stroke="white" stroke-width="2"/>
<g opacity="0.6">
<path d="M137.585 332.629L136.984 333.553C143.408 337.554 140.655 342.312 147.67 347.205C163.708 358.391 207.104 372.761 236.018 384.735C237.268 377.944 237.41 363.611 227.987 360.609C216.207 356.856 223.703 341.307 218.349 337.554C212.994 333.801 199.608 348.277 188.899 350.958C180.332 353.103 171.121 334.662 176.049 324.151C178.281 319.389 190.05 305.386 202.821 305.386C213.613 305.386 246.958 324.687 248.869 331.121C250.78 337.554 273.715 338.49 264.932 328.44L242.444 302.705C233.661 292.655 264.88 301.684 272.964 291.982C280.483 282.957 268.835 268.633 278.854 262.494C283.749 259.495 288.635 263.144 293.311 259.813C297.378 256.916 295.473 250.478 300.272 249.091C307.677 246.949 353.104 255.202 360.241 245.338C367.379 235.473 315.019 230.444 318.231 219.441C321.954 206.686 348.974 215.827 357.233 206.603C365.034 197.892 348.146 171.598 326.299 145.863C215.08 213.496 164.772 290.835 137.585 332.629Z" stroke="white"/>
<path d="M278.854 384.735L287.956 399.211L405.219 406.181L312.051 360.609L278.854 384.735Z" stroke="white"/>
<path d="M252.082 371.331V355.247C252.082 348.813 269.93 356.141 278.854 360.609V371.331H252.082Z" stroke="white"/>
<path d="M500.16 77.7296C455.515 86.2999 404.859 106.869 399.278 109.011C400.884 110.262 411.737 118.432 416.02 125.723C421.375 134.838 436.367 144.488 441.186 144.488C446.005 144.488 450.824 120.362 450.824 116.609C450.824 112.856 461.073 102.392 500.16 77.7296Z" stroke="white"/>
<path d="M536.402 130.012C524.623 130.012 525.158 112.856 525.158 107.494L557.285 104.277L560.497 116.609C556.392 121.077 545.826 130.012 536.402 130.012Z" stroke="white"/>
<path d="M570.671 164.424C566.075 154.184 566.686 135.645 577.482 137.373C584.367 138.475 583.736 142.548 586.734 150.268C590.482 159.919 601.191 178.148 599.049 191.551C597.336 202.274 563.176 199.709 570.671 191.551C574.954 186.889 582.558 183.724 582.986 178.148C583.414 172.572 573.518 170.768 570.671 164.424Z" stroke="white"/>
<path d="M573.812 179.553C569.171 180.983 561.076 189.976 556.214 184.045C552.894 179.996 557.642 172.608 556.214 170.642C554.786 168.676 560.485 165.572 564.245 165.28C570.939 164.762 578.452 178.124 573.812 179.553Z" stroke="white"/>
<path d="M579.238 265.175C566.816 264.746 564.781 249.269 565.316 241.585L591.018 237.295L603.333 223.892C600.12 219.96 594.766 211.239 599.049 207.807C604.404 203.518 628.499 178.32 632.247 170.813C635.245 164.809 642.42 164.737 645.633 165.452C645.633 169.741 646.383 178.963 649.381 181.536C652.38 184.11 683.212 183.94 689.539 173.494C695.866 163.048 714.679 156.171 715.241 150.44C715.802 144.709 706.352 141.326 702.925 141.326C699.499 141.326 698.999 133.105 699.177 128.994C699.356 124.884 722.096 119.055 720.06 107.548C718.914 101.079 715.673 97.2643 709.886 94.1449C696.715 87.0441 686.881 105.923 681.508 119.88C677.219 131.019 681.508 150.44 681.508 150.44L665.444 156.874C663.659 153.836 659.126 146.473 655.271 141.326C651.416 136.179 644.475 148.835 637.601 150.44C630.728 152.045 630.192 137.933 628.499 128.994C622.254 96.0275 684.753 64.0172 684.753 64.0172C821.266 77.3011 830.176 84.9879 910.987 115.01C981.819 141.326 1073.85 210.352 1117.04 251.278C1117.04 251.278 1106.38 253.363 1104.51 258.741C1102.87 263.454 1122.18 285.666 1122.18 291.982C1122.18 298.299 1109.39 313.133 1095.94 319.325C1080.56 326.409 1063.69 306.556 1052.57 319.325C1049.86 322.44 1048.45 324.5 1047.22 328.44C1043.3 340.955 1063.28 357.928 1063.28 357.928L1052.57 363.289C1052.57 363.289 1038.18 351.672 1027.4 347.205C1020.37 344.29 1011.61 348.859 1008.66 341.844C1007.21 338.368 1009.69 335.82 1008.66 332.193C1006.52 324.617 1001.46 320.305 993.136 319.325C984.81 318.345 948.373 341.844 947.088 341.844C945.482 341.844 955.12 347.205 939.056 363.289C922.993 379.374 920.316 355.247 914.961 347.205C909.607 339.163 926.206 324.151 914.961 324.151C903.717 324.151 893.008 319.325 887.654 313.964C882.299 308.603 850.172 302.705 839.464 297.88C828.755 293.054 816.44 291.982 811.085 291.982C806.802 291.982 812.87 304.492 816.44 310.747C816.44 310.747 833.862 306.071 843.212 310.747C849.83 314.057 861.595 318.789 856.598 324.151C851.6 329.512 847.258 336.205 839.464 341.844C825.265 352.115 801.402 356.525 796.628 355.247C790.77 353.679 776.817 337.554 762.895 310.747C751.758 289.301 746.118 291.089 744.69 294.663L780.565 360.609L816.44 374.012L790.203 411.542L660.09 406.181L628.499 379.374L572.277 384.735C572.277 384.735 542.217 369.228 538.544 350.958C536.067 338.639 539.14 330.723 544.434 319.325C548.842 309.837 558.626 308.172 560.497 297.88C561.246 293.76 559.812 291.288 560.497 287.157C561.678 280.046 562.379 274.304 568.529 270.536C573.353 267.581 635.757 263.913 644.934 269.873C649.326 272.726 647.161 275.472 649.381 278.578C655.116 286.604 670.799 291.982 670.799 291.982C670.799 291.982 688.939 299.671 692.216 291.982C693.612 288.707 690.31 285.875 692.216 282.868C700.455 269.873 739.278 302.393 752.186 282.868C756.203 276.792 765.394 265.175 758.076 265.175C750.758 265.175 735.052 265.711 730.769 267.856C726.485 270 723.629 260.171 722.737 254.988C721.844 249.805 735.439 252.082 744.69 250.617C757.328 248.615 766.366 259.501 776.817 251.771C779.672 249.659 783.242 245.338 783.242 245.338L768.785 233.542C766.822 230.326 762.895 222.927 762.895 219.066C762.895 215.206 743.262 222.462 733.446 226.572C733.446 226.572 726.969 239.565 720.06 245.338C716.453 248.351 709.886 251.771 709.886 251.771C708.458 254.452 705.067 260.35 702.925 262.494C700.784 264.639 693.109 256.239 689.539 251.771L692.216 245.338L660.09 226.572L675.082 241.585C680.437 247.661 687.076 258.848 670.799 254.988C650.452 250.163 652.058 231.934 634.924 233.542C617.79 235.151 611.9 241.585 611.9 251.771C611.9 261.958 594.766 265.711 579.238 265.175Z" stroke="white"/>
<path d="M1024.73 384.735L1020.98 360.609C1031.51 375.799 1052.57 406.717 1052.57 408.862C1052.57 411.006 1031.51 404.394 1020.98 400.819L1008.66 388.488L1015.09 379.374L1024.73 384.735Z" stroke="white"/>
<path d="M1066.49 392.777V406.181H1109.86V384.735L1098.08 376.157L1066.49 392.777Z" stroke="white"/>
<path d="M1145.2 379.374C1140.38 379.374 1131.28 379.374 1122.18 374.012C1127.89 370.438 1140.49 363.289 1145.2 363.289C1151.09 363.289 1150.02 379.374 1145.2 379.374Z" stroke="white"/>
<path d="M1127.53 310.747C1132.89 310.747 1122.18 328.44 1122.18 332.193C1119.5 332.193 1114.15 330.584 1114.15 324.151C1114.15 316.109 1122.18 310.747 1127.53 310.747Z" stroke="white"/>
<path d="M1151.63 310.747C1147.88 310.747 1140.92 310.747 1139.31 303.241L1155.68 291.558L1162.98 299.7C1160.3 303.989 1154.63 310.747 1151.63 310.747Z" stroke="white"/>
</g>
<g filter="url(#filter0_f)">
<path d="M494.919 34.1337L342.091 188.264M494.919 34.1337L650.899 98.4029M494.919 34.1337L632.278 227.951M749.463 17.2725L650.899 98.4029M749.463 17.2725L811.704 139.608M749.463 17.2725L746.029 172.201M973.102 82.0234C913.09 101.451 811.704 139.608 811.704 139.608M973.102 82.0234C941.084 124.228 883.389 197.932 883.389 197.932M973.102 82.0234C973.102 149.014 994.579 266.664 994.579 266.664M1162.48 219.374L1059.38 389.628M1162.48 219.374L994.579 266.664M1162.48 219.374L929.748 346.314M1269.2 369.33L1059.38 389.628M1059.38 389.628L1307.57 464.248L967.106 467.679M1059.38 389.628L929.748 346.314M1059.38 389.628L967.106 467.679M929.748 346.314L776.935 379.336M929.748 346.314L994.579 266.664M929.748 346.314L776.935 297.425M929.748 346.314L967.106 467.679M929.748 346.314L811.704 486.12M776.935 379.336L578.193 351.032M776.935 379.336V297.425M776.935 379.336L811.704 486.12M776.935 379.336L598.797 535.009M578.193 351.032L316.351 384.911M578.193 351.032L439.116 503.274M578.193 351.032L224.625 303.8M578.193 351.032L566.47 281.793M578.193 351.032L632.278 227.951M578.193 351.032L776.935 297.425M578.193 351.032L598.797 535.009M316.351 384.911L81.2262 343.741L224.625 303.8M316.351 384.911L30.4716 459.847L439.116 503.274M316.351 384.911L439.116 503.274M316.351 384.911L224.625 303.8M439.116 503.274L598.797 535.009M224.625 303.8L566.47 281.793M224.625 303.8L342.091 188.264M224.625 303.8L240.803 158.906L342.091 188.264M566.47 281.793L342.091 188.264M566.47 281.793L632.278 227.951M342.091 188.264L632.278 227.951M632.278 227.951L650.899 98.4029M632.278 227.951L746.029 172.201M632.278 227.951L776.935 297.425M650.899 98.4029L746.029 172.201M746.029 172.201L811.704 139.608M746.029 172.201L776.935 297.425M746.029 172.201L883.389 197.932M811.704 139.608L883.389 197.932M776.935 297.425L883.389 197.932M776.935 297.425L994.579 266.664M883.389 197.932L994.579 266.664M967.106 467.679L811.704 486.12M811.704 486.12L598.797 535.009M1348 648.987C1333.83 749.767 1031.66 628.402 664.206 628.402C296.751 628.402 17.3281 712.885 17.3281 648.987C17.3281 303.425 315.209 23.2923 682.664 23.2923C1050.12 23.2923 1348 303.425 1348 648.987Z" stroke="#F9DF5F" stroke-dasharray="15 15"/>
</g>
<path d="M494.919 34.1337L341.174 187.347M494.919 34.1337L650.899 98.4029M494.919 34.1337L632.279 227.951M749.464 17.2725L650.899 98.4029M749.464 17.2725L811.705 139.608M749.464 17.2725L746.03 172.201M973.102 82.0234C913.09 101.451 811.705 139.608 811.705 139.608M973.102 82.0234C941.085 124.228 883.389 197.932 883.389 197.932M973.102 82.0234C973.102 149.014 994.58 266.664 994.58 266.664M1162.48 219.374L1059.38 389.628M1162.48 219.374L994.58 266.664M1162.48 219.374L929.748 346.314M1269.2 369.33L1059.38 389.628M1059.38 389.628L1307.57 464.248L967.106 467.679M1059.38 389.628L929.748 346.314M1059.38 389.628L967.106 467.679M929.748 346.314L776.936 379.336M929.748 346.314L994.58 266.664M929.748 346.314L776.936 297.425M929.748 346.314L967.106 467.679M929.748 346.314L811.705 486.12M776.936 379.336L578.193 351.032M776.936 379.336V297.425M776.936 379.336L811.705 486.12M776.936 379.336L598.797 535.009M578.193 351.032L316.352 384.911M578.193 351.032L439.117 503.274M578.193 351.032L222.331 305.176M578.193 351.032L566.012 281.793M578.193 351.032L632.279 227.951M578.193 351.032L776.936 297.425M578.193 351.032L598.797 535.009M316.352 384.911L81.2265 343.741L222.331 305.176M316.352 384.911L30.4719 459.847L439.117 503.274M316.352 384.911L439.117 503.274M316.352 384.911L222.331 305.176M439.117 503.274L598.797 535.009M222.331 305.176L566.012 281.793M222.331 305.176L341.174 187.347M222.331 305.176L240.804 158.906L341.174 187.347M566.012 281.793L341.174 187.347M566.012 281.793L632.279 227.951M341.174 187.347L632.279 227.951M632.279 227.951L650.899 98.4029M632.279 227.951L746.03 172.201M632.279 227.951L776.936 297.425M650.899 98.4029L746.03 172.201M746.03 172.201L811.705 139.608M746.03 172.201L776.936 297.425M746.03 172.201L883.389 197.932M811.705 139.608L883.389 197.932M776.936 297.425L883.389 197.932M776.936 297.425L994.58 266.664M883.389 197.932L994.58 266.664M967.106 467.679L811.705 486.12M811.705 486.12L598.797 535.009M1333.67 638.362C1319.51 739.142 1017.33 617.777 649.878 617.777C282.423 617.777 3 702.261 3 638.362C3 292.801 300.881 12.6678 668.336 12.6678C1035.79 12.6678 1333.67 292.801 1333.67 638.362Z" stroke="#F9DF5F" stroke-dasharray="15 15"/>
<ellipse cx="83.7596" cy="344.605" rx="7.34164" ry="7.33562" fill="#F9DF5F"/>
<ellipse cx="242.521" cy="160.297" rx="7.34164" ry="7.33562" fill="#F9DF5F"/>
<g filter="url(#filter1_f)">
<ellipse cx="222.33" cy="304.259" rx="7.34164" ry="7.33562" fill="#F9DF5F"/>
</g>
<ellipse cx="222.33" cy="304.259" rx="7.34164" ry="7.33562" fill="#F9DF5F"/>
<ellipse cx="340.717" cy="187.806" rx="7.34164" ry="7.33562" fill="#F9DF5F"/>
<ellipse cx="495.347" cy="35.1332" rx="7.80049" ry="7.7941" fill="#F9DF5F"/>
<ellipse cx="566.471" cy="281.335" rx="7.34164" ry="7.33562" fill="#F9DF5F"/>
<ellipse cx="578.4" cy="351.023" rx="7.34164" ry="7.33562" fill="#F9DF5F"/>
<ellipse cx="631.63" cy="227.693" rx="9.17704" ry="8.71105" fill="#F9DF5F"/>
<ellipse cx="650.9" cy="98.8614" rx="9.17704" ry="9.16953" fill="#F9DF5F"/>
<ellipse cx="750.468" cy="17.7111" rx="8.71819" ry="8.71105" fill="#F9DF5F"/>
<ellipse cx="972.099" cy="82.3562" rx="7.34164" ry="7.33562" fill="#F9DF5F"/>
<ellipse cx="1161.14" cy="220.816" rx="7.34164" ry="7.33562" fill="#F9DF5F"/>
<ellipse cx="995.036" cy="265.747" rx="9.17704" ry="9.16953" fill="#F9DF5F"/>
<ellipse cx="882.161" cy="196.975" rx="9.17704" ry="9.16953" fill="#F9DF5F"/>
<ellipse cx="745.882" cy="172.676" rx="10.5536" ry="10.545" fill="#F9DF5F"/>
<g filter="url(#filter2_f)">
<ellipse cx="745.882" cy="172.676" rx="10.5536" ry="10.545" fill="#F9DF5F"/>
</g>
<circle cx="291.88" cy="396.574" r="5.14569" fill="#F9DF5F"/>
<circle cx="1329.44" cy="379.733" r="5.14569" fill="#F9DF5F"/>
<circle cx="1102.09" cy="402.187" r="5.14569" fill="#F9DF5F"/>
<circle cx="793.349" cy="390.96" r="5.14569" fill="#F9DF5F"/>
<ellipse cx="812.416" cy="139.207" rx="7.34164" ry="7.33562" fill="#F9DF5F"/>
<ellipse cx="776.623" cy="296.923" rx="7.34164" ry="7.33562" fill="#F9DF5F"/>
<ellipse cx="929.881" cy="346.033" rx="7.34164" ry="7.33562" fill="#F9DF5F"/>
<path d="M1197.93 104.837C1198.35 104.906 1198.75 104.979 1199.14 105.055C1208.44 106.86 1210.31 110.559 1210.43 120.731C1210.43 121.109 1210.44 121.497 1210.44 121.894L1228.9 101.876L1227.95 101.729L1211.21 119.885C1211.1 115.198 1210.56 111.761 1208.86 109.272C1207.15 106.784 1204.37 105.375 1200.17 104.457L1228.74 87.96C1228.81 87.9564 1228.89 87.9534 1228.99 87.9534C1229.26 87.9534 1229.64 87.9749 1230.1 88.0631C1231.01 88.2389 1232.2 88.6777 1233.31 89.7396C1234.42 90.8134 1234.9 91.9156 1235.11 92.7332C1235.21 93.1446 1235.25 93.4867 1235.26 93.7193C1235.26 93.7503 1235.26 93.7793 1235.26 93.8062L1234.01 95.162L1235.09 95.162L1236.04 94.1267C1236.04 94.1267 1236.33 91.5483 1233.86 89.1683C1231.39 86.7882 1228.5 87.1849 1228.5 87.1849L1197.93 104.837Z" fill="#A6A6A5"/>
<path fill-rule="evenodd" clip-rule="evenodd" d="M1199.44 104.898C1196.77 105.787 1193.47 111.042 1198.25 117.493C1200.58 120.641 1203.22 122.127 1205.48 122.465C1207.74 122.804 1209.6 121.998 1210.49 120.575L1211.17 120.995C1210.07 122.746 1207.86 123.625 1205.36 123.25C1202.86 122.874 1200.04 121.245 1197.61 117.965C1192.58 111.171 1195.91 105.239 1199.19 104.145L1199.44 104.898Z" fill="#A6A6A5"/>
<path fill-rule="evenodd" clip-rule="evenodd" d="M1227.75 95.9034L1218.62 101.466L1272.86 101.474L1276.63 93.6023L1227.75 95.9034ZM1227.51 95.1204L1215.8 102.259L1273.36 102.267L1277.92 92.7472L1227.51 95.1204Z" fill="#A6A6A5"/>
<path fill-rule="evenodd" clip-rule="evenodd" d="M1177.66 103.88L1188.26 95.7181L1215.18 94.7908L1215.21 95.5836L1188.54 96.5022L1180.08 103.017L1202.08 102.389L1202.11 103.182L1177.66 103.88Z" fill="#A6A6A5"/>
<path d="M90.5273 186.149C90.21 186.202 89.9029 186.257 89.6058 186.315C82.5245 187.689 81.1021 190.507 81.0091 198.252C81.0056 198.541 81.004 198.836 81.004 199.139L66.905 183.85L67.6662 183.784L80.4152 197.608C80.4954 194.039 80.9054 191.422 82.2059 189.527C83.5066 187.631 85.6199 186.559 88.8183 185.86L67.0618 173.297C67.0139 173.294 66.951 173.292 66.8751 173.292C66.6714 173.292 66.3767 173.308 66.0279 173.375C65.332 173.509 64.4263 173.843 63.5861 174.652C62.7364 175.47 62.3719 176.309 62.2154 176.932C62.1367 177.245 62.1102 177.505 62.1029 177.683C62.1019 177.706 62.1013 177.728 62.1009 177.749L62.851 178.562L62.1009 178.64L61.5038 177.993C61.5038 177.993 61.2834 176.029 63.1666 174.217C65.0498 172.404 67.248 172.706 67.248 172.706L90.5273 186.149Z" fill="#A6A6A5"/>
<path fill-rule="evenodd" clip-rule="evenodd" d="M89.377 186.195C91.4106 186.872 93.9264 190.874 90.2865 195.787C88.5102 198.184 86.4979 199.316 84.7791 199.573C83.0555 199.832 81.6392 199.217 80.9613 198.134L80.4486 198.454C81.2824 199.787 82.9648 200.456 84.8688 200.171C86.7776 199.885 88.9217 198.644 90.7725 196.146C94.6063 190.972 92.0693 186.455 89.5682 185.622L89.377 186.195Z" fill="#A6A6A5"/>
<path fill-rule="evenodd" clip-rule="evenodd" d="M67.8215 179.346L74.7697 183.582L33.4674 183.588L30.5938 177.594L67.8215 179.346ZM68.0046 178.75L76.9213 184.186L33.0866 184.192L29.6112 176.942L68.0046 178.75Z" fill="#A6A6A5"/>
<path fill-rule="evenodd" clip-rule="evenodd" d="M105.963 185.42L97.8947 179.205L77.3888 178.499L77.368 179.102L97.6795 179.802L104.12 184.763L87.3639 184.285L87.3466 184.889L105.963 185.42Z" fill="#A6A6A5"/>
<defs>
<filter id="filter0_f" x="0.828125" y="0.490608" width="1363.67" height="704.986" filterUnits="userSpaceOnUse" color-interpolation-filters="sRGB">
<feFlood flood-opacity="0" result="BackgroundImageFix"/>
<feBlend mode="normal" in="SourceGraphic" in2="BackgroundImageFix" result="shape"/>
<feGaussianBlur stdDeviation="8" result="effect1_foregroundBlur"/>
</filter>
<filter id="filter1_f" x="198.988" y="280.923" width="46.6833" height="46.6712" filterUnits="userSpaceOnUse" color-interpolation-filters="sRGB">
<feFlood flood-opacity="0" result="BackgroundImageFix"/>
<feBlend mode="normal" in="SourceGraphic" in2="BackgroundImageFix" result="shape"/>
<feGaussianBlur stdDeviation="8" result="effect1_foregroundBlur"/>
</filter>
<filter id="filter2_f" x="719.328" y="146.131" width="53.1072" height="53.0899" filterUnits="userSpaceOnUse" color-interpolation-filters="sRGB">
<feFlood flood-opacity="0" result="BackgroundImageFix"/>
<feBlend mode="normal" in="SourceGraphic" in2="BackgroundImageFix" result="shape"/>
<feGaussianBlur stdDeviation="8" result="effect1_foregroundBlur"/>
</filter>
</defs>
</svg>
