<svg width="253" height="249" viewBox="0 0 253 249" fill="none" xmlns="http://www.w3.org/2000/svg">
<g transform="translate(20, 55)">
<path d="M148.375 8.15284L1 1L46.6822 177.437L231 183L148.375 8.15284Z" stroke="#A6A6A5"/>	
</g>
<path d="M47.0213 99.264C37.9362 99.5618 18.6936 99.9787 14.4043 99.264L30.4894 186.362H73.383L47.0213 99.264Z" fill="#101010"/>
<path d="M198.043 64.8716L12.617 58.1718L1 1L170.34 4.57324L198.043 64.8716Z" fill="#101010"/>
<path d="M141.298 217.627L97.9575 215.841L101.085 248H151.128L141.298 217.627Z" fill="#101010"/>
<path d="M156.936 217.627L198.043 219.861L211.894 248H167.66L156.936 217.627Z" fill="#101010"/>
<path d="M177.043 124.723L164.532 93.0108H222.17L238.702 126.957L177.043 124.723Z" fill="#101010"/>
<path d="M214.128 174.302L198.043 139.016H238.702L253 174.302H214.128Z" fill="#101010"/>
<path d="M47.0213 99.264C37.9362 99.5618 18.6936 99.9787 14.4043 99.264L30.4894 186.362H73.383L47.0213 99.264Z" stroke="#A6A6A5"/>
<path d="M198.043 64.8716L12.617 58.1718L1 1L170.34 4.57324L198.043 64.8716Z" stroke="#A6A6A5"/>
<path d="M141.298 217.627L97.9575 215.841L101.085 248H151.128L141.298 217.627Z" stroke="#A6A6A5"/>
<path d="M156.936 217.627L198.043 219.861L211.894 248H167.66L156.936 217.627Z" stroke="#A6A6A5"/>
<path d="M177.043 124.723L164.532 93.0108H222.17L238.702 126.957L177.043 124.723Z" stroke="#A6A6A5"/>
<path d="M214.128 174.302L198.043 139.016H238.702L253 174.302H214.128Z" stroke="#A6A6A5"/>
<g transform="translate(20, 55)">
	<path d="M108.151 96.9373L118.229 121.57M118.229 121.57L109.332 121.297M118.229 121.57L123.407 121.173M145.733 146.751L132.52 120.474L123.407 121.173M97.7265 120.941L84.1791 122.109L92.2326 146.751M97.7265 120.941L106.233 146.751M97.7265 120.941L109.332 121.297M97.7265 120.941L86.1505 93.4373M109.332 121.297L119.233 146.751M123.407 121.173L134.233 146.751M80.8314 54.3268L65.9381 35.3218M65.9381 35.3218L59.369 35.1467M65.9381 35.3218L59.8148 23.3948M65.9381 35.3218L75.3142 35.775M90.8135 36.5242L97.7265 53.2684M90.8135 36.5242L83.0638 36.1496M90.8135 36.5242L83.7858 25.4107M90.8135 36.5242L102.232 36.5242L94.732 24.4429M42.7328 20.7684L49.8438 34.8927L59.369 35.1467M59.369 35.1467L51.9383 21.808M75.3142 35.775L66.5601 23.6804M75.3142 35.775L83.0638 36.1496M83.0638 36.1496L75.3238 24.4429" stroke="white"/>
	<path d="M77.4426 106.663L56.9434 56.163L73.4434 39.6631L111.943 41.6631L139.443 109.163L77.4426 106.663Z" fill="#F9DF5F"/>
</g>
</svg>
