<svg width="201" height="397" viewBox="0 0 201 397" fill="none" xmlns="http://www.w3.org/2000/svg">
<circle cx="109.035" cy="171.425" r="25.3435" fill="#F9DF5F"/>
<path d="M33.6118 63.5678C28.1109 41.7606 17.2269 -1.26448 17.6984 1.09305C18.1699 3.45059 31.2536 43.7252 37.7365 63.5678H33.6118Z" stroke="white"/>
<ellipse cx="91.9914" cy="103.81" rx="24.0919" ry="32.5566" transform="rotate(21.1849 91.9914 103.81)" fill="#F9DF5F"/>
<path d="M46.5593 460.813L22.3945 403.643M46.5593 460.813L106.087 430.755M46.5593 460.813L78.386 390.702M22.3945 403.643L31.2353 311.11M22.3945 403.643L78.386 390.702M147.344 374.763L162.079 423.093M147.344 374.763L192.727 387.14M147.344 374.763L78.386 390.702M147.344 374.763L120.822 276.925M162.079 423.093H192.727V387.14M162.079 423.093L106.087 430.755M192.727 387.14L185.654 299.322M192.727 387.14L233.984 397.749L185.654 299.322M185.654 299.322L120.822 276.925M185.654 299.322L136.735 201.484M185.654 299.322L155.006 253.534L136.735 201.484M120.822 276.925L31.2353 311.11M120.822 276.925L78.386 390.702M120.822 276.925L95.4782 179.677M120.822 276.925L93.1207 236.442M120.822 276.925L117.285 191.204M31.2353 311.11L78.386 390.702M31.2353 311.11L38.8973 210.325M31.2353 311.11L48.3274 253.534M78.386 390.702L106.087 430.755M38.8973 210.325L65.4196 195.959M38.8973 210.325L48.3274 253.534M38.8973 210.325L40.4879 193.822M95.4782 179.677L65.4196 195.959M95.4782 179.677L93.1207 236.442M95.4782 179.677L90.8335 165.532M95.4782 179.677L117.285 191.204M95.4782 179.677L117.285 163.764M65.4196 195.959L48.3274 253.534M65.4196 195.959L93.1207 236.442M65.4196 195.959L57.7576 183.819M65.4196 195.959L71.132 177.319M82.5117 140.188L76.8219 158.754M82.5117 140.188L86.6726 152.86M82.5117 140.188L77.502 116.023M82.5117 140.188L38.3079 139.304M82.5117 140.188L68.3665 147.904M82.5117 140.188L117.285 191.204M82.5117 140.188L107.266 134.294M82.5117 140.188L117.285 163.764M72.4922 91.8586L33.0035 117.202M72.4922 91.8586L38.3079 139.304M72.4922 91.8586L77.502 116.023M72.4922 91.8586L103.73 109.54M72.4922 91.8586L107.266 134.294M72.4922 91.8586L90.8335 62.3894M72.4922 91.8586L70.4247 84.1966M33.0035 117.202L38.3079 139.304M33.0035 117.202L77.502 116.023M33.0035 117.202L30.6459 106.004M43.6124 161.406L50.685 172.612M43.6124 161.406L42.0501 177.614M43.6124 161.406L38.3079 139.304M43.6124 161.406L77.502 116.023M43.6124 161.406L55.4983 154.923M40.4879 193.822L57.7576 183.819M40.4879 193.822L42.0501 177.614M57.7576 183.819L50.685 172.612M57.7576 183.819L71.132 177.319M57.7576 183.819L63.7534 165.683M71.132 177.319L90.8335 165.532M71.132 177.319L76.8219 158.754M71.132 177.319L63.7534 165.683M90.8335 165.532L86.6726 152.86M50.685 172.612L42.0501 177.614M50.685 172.612L63.7534 165.683M50.685 172.612L55.4983 154.923M76.8219 158.754L86.6726 152.86M76.8219 158.754L63.7534 165.683M76.8219 158.754L68.3665 147.904M38.3079 139.304L77.502 116.023M77.502 116.023L103.73 109.54M77.502 116.023L107.266 134.294M68.3665 147.904L63.7534 165.532L55.4983 154.923M68.3665 147.904L55.4983 154.923M103.73 109.54L107.266 134.294M103.73 109.54C99.4309 94.6091 90.8335 64.2754 90.8335 62.3894M103.73 109.54L62.4727 54.7274M107.266 134.294C110.409 143.528 116.814 162.349 117.285 163.764M117.285 163.764C117.757 165.178 130.448 189.5 136.735 201.484M117.285 163.764V191.204M136.735 201.484L117.285 191.204M62.4727 54.7274L57.7576 27.6157M62.4727 54.7274L90.8335 62.3894M62.4727 54.7274L88.995 44.7079M62.4727 54.7274L28.8778 48.2442M62.4727 54.7274L29.5634 70.6408M62.4727 54.7274L30.6459 106.004M62.4727 54.7274L70.4247 84.1966M57.7576 27.6157L28.8778 48.2442M57.7576 27.6157L88.995 44.7079M57.7576 27.6157L90.8335 62.3894M57.7576 27.6157L29.5634 70.6408M28.8778 48.2442L29.5634 70.6408M30.6459 106.004L29.5634 70.6408M30.6459 106.004C31.5889 104.485 57.558 90.8327 70.4247 84.1966M90.8335 62.3894C90.8335 60.5034 89.6078 49.8159 88.995 44.7079M29.5634 70.6408L70.4247 84.1966" stroke="white"/>
<ellipse cx="48.9206" cy="148.976" rx="12.6798" ry="20.6047" transform="rotate(26.9058 48.9206 148.976)" fill="#F9DF5F"/>
<ellipse cx="30.338" cy="68.3771" rx="18.6457" ry="30.2993" transform="rotate(26.9058 30.338 68.3771)" fill="#F9DF5F"/>
<path d="M83.1036 228.006L96.0701 327.612M83.1036 228.006L78.8306 273.683M83.1036 228.006L106.09 216.218M83.1036 228.006L70.7266 223.259M96.0701 327.612L78.8306 273.683M96.0701 327.612L109.626 415.43L81.3355 372.995M96.0701 327.612L81.3355 372.995M96.0701 327.612L30.6484 310.52L66.6009 410.126L81.3355 372.995M96.0701 327.612L141.453 313.411M61.5911 219.755L78.8306 273.683M61.5911 219.755L70.7266 223.259M61.5911 219.755L50.8349 215.629M182.71 300.5L174.458 355.313M182.71 300.5L141.453 313.411M182.71 300.5L141.453 255.707L106.09 216.218M182.71 300.5L134.38 201.484M166.207 410.126L174.458 355.313M174.458 355.313L141.453 313.411M106.09 216.218L134.38 201.484M134.38 201.484L121.414 196.179L70.7266 223.259M50.8349 215.629L40.0786 211.503L56.7148 201.484M50.8349 215.629L106.09 187.928L91.9444 180.266L65.5222 196.179M56.7148 201.484L44.2043 164.942L65.5222 196.179M56.7148 201.484L65.5222 196.179" stroke="#A6A6A5"/>
</svg>
