<svg width="730" height="454" viewBox="0 0 730 454" fill="none" xmlns="http://www.w3.org/2000/svg">
<path d="M314 182V268.5H291" stroke="#A6A6A5"/>
<path d="M621 178.5V122H651M621 178.5V270.5H651M621 178.5H585" stroke="#A6A6A5"/>
<path d="M468 183H506" stroke="#A6A6A5"/>
<path d="M375 182H314V117H291" stroke="#A6A6A5"/>
<path d="M518 382H645" stroke="#F9DF5F"/>
<path d="M108 347.5H160V184.5H191" stroke="#F9DF5F"/>
<path d="M191 184.5V267.5H211.5" stroke="#F9DF5F"/>
<path d="M648 16.5L518 16.5" stroke="#A6A6A5"/>
<path d="M253 319.5V383H455" stroke="#F9DF5F"/>
<path d="M253 75.75V22H423.5" stroke="#A6A6A5"/>
<path fill-rule="evenodd" clip-rule="evenodd" d="M498.45 5.00339H439.008V18.0475H498.45V5.00339ZM438 4V19.0508H499.458V4H438Z" fill="#A6A6A5"/>
<path fill-rule="evenodd" clip-rule="evenodd" d="M445.775 10.0204H442.765V13.0305H445.775V10.0204ZM441.762 9.01697V14.0339H446.779V9.01697H441.762Z" fill="#A6A6A5"/>
<path fill-rule="evenodd" clip-rule="evenodd" d="M453.175 10.0204H449.789V13.0305H453.175V10.0204ZM448.66 9.01697V14.0339H454.304V9.01697H448.66Z" fill="#A6A6A5"/>
<path fill-rule="evenodd" clip-rule="evenodd" d="M460.201 10.0204H457.191V13.0305H460.201V10.0204ZM456.188 9.01697V14.0339H461.204V9.01697H456.188Z" fill="#A6A6A5"/>
<path fill-rule="evenodd" clip-rule="evenodd" d="M491.683 11.5254C491.683 12.3567 492.357 13.0305 493.188 13.0305C494.019 13.0305 494.693 12.3567 494.693 11.5254C494.693 10.6942 494.019 10.0204 493.188 10.0204C492.357 10.0204 491.683 10.6942 491.683 11.5254ZM493.188 9.01697C491.803 9.01697 490.68 10.1401 490.68 11.5254C490.68 12.9108 491.803 14.0339 493.188 14.0339C494.574 14.0339 495.697 12.9108 495.697 11.5254C495.697 10.1401 494.574 9.01697 493.188 9.01697Z" fill="#A6A6A5"/>
<path fill-rule="evenodd" clip-rule="evenodd" d="M498.45 19.427H439.008V32.471H498.45V19.427ZM438 18.4236V33.4744H499.458V18.4236H438Z" fill="#A6A6A5"/>
<path fill-rule="evenodd" clip-rule="evenodd" d="M445.775 24.4437H442.765V27.4539H445.775V24.4437ZM441.762 23.4403V28.4573H446.779V23.4403H441.762Z" fill="#A6A6A5"/>
<path fill-rule="evenodd" clip-rule="evenodd" d="M453.175 24.4437H449.789V27.4539H453.175V24.4437ZM448.66 23.4403V28.4573H454.304V23.4403H448.66Z" fill="#A6A6A5"/>
<path fill-rule="evenodd" clip-rule="evenodd" d="M460.201 24.4437H457.191V27.4539H460.201V24.4437ZM456.188 23.4403V28.4573H461.204V23.4403H456.188Z" fill="#A6A6A5"/>
<path fill-rule="evenodd" clip-rule="evenodd" d="M491.683 25.9488C491.683 26.78 492.357 27.4539 493.188 27.4539C494.019 27.4539 494.693 26.78 494.693 25.9488C494.693 25.1175 494.019 24.4437 493.188 24.4437C492.357 24.4437 491.683 25.1175 491.683 25.9488ZM493.188 23.4403C491.803 23.4403 490.68 24.5634 490.68 25.9488C490.68 27.3342 491.803 28.4573 493.188 28.4573C494.574 28.4573 495.697 27.3342 495.697 25.9488C495.697 24.5634 494.574 23.4403 493.188 23.4403Z" fill="#A6A6A5"/>
<path d="M468.102 32.2205H469.356V37.2374H468.102V32.2205Z" fill="#A6A6A5"/>
<path d="M461.828 38.4913L461.828 39.7456L456.811 39.7456L456.811 38.4913L461.828 38.4913Z" fill="#A6A6A5"/>
<path d="M480.645 38.4913L480.645 39.7456L475.628 39.7456L475.628 38.4913L480.645 38.4913Z" fill="#A6A6A5"/>
<path fill-rule="evenodd" clip-rule="evenodd" d="M475.251 40.0595L475.251 38.1781L462.206 38.1781L462.206 40.0595L475.251 40.0595ZM476.254 37.2374L461.203 37.2374L461.203 41.0001L476.254 41.0001L476.254 37.2374Z" fill="#A6A6A5"/>
<path fill-rule="evenodd" clip-rule="evenodd" d="M39.6503 267.796C39.9251 268.089 39.9097 268.55 39.616 268.825C35.8436 272.354 33.4955 277.336 33.4955 282.858C33.4955 288.379 35.8436 293.362 39.616 296.891C39.9097 297.165 39.9251 297.626 39.6503 297.92C39.3756 298.214 38.9147 298.229 38.621 297.954C34.5693 294.164 32.0391 288.803 32.0391 282.858C32.0391 276.913 34.5693 271.551 38.621 267.761C38.9147 267.486 39.3756 267.502 39.6503 267.796ZM66.6655 267.796C66.9403 267.502 67.4011 267.486 67.6949 267.761C71.7466 271.551 74.2768 276.913 74.2768 282.858C74.2768 288.803 71.7466 294.164 67.6949 297.954C67.4011 298.229 66.9403 298.214 66.6655 297.92C66.3908 297.626 66.4062 297.165 66.6999 296.891C70.4722 293.362 72.8203 288.379 72.8203 282.858C72.8203 277.336 70.4722 272.354 66.6999 268.825C66.4062 268.55 66.3908 268.089 66.6655 267.796Z" fill="#F9DF5F"/>
<path fill-rule="evenodd" clip-rule="evenodd" d="M33.1406 261.244C33.4139 261.539 33.3962 262 33.1012 262.273C27.5131 267.449 24.0346 274.758 24.0346 282.858C24.0346 290.957 27.5131 298.266 33.1012 303.442C33.3962 303.716 33.4139 304.176 33.1406 304.471C32.8673 304.766 32.4065 304.784 32.1114 304.511C26.2429 299.075 22.5781 291.385 22.5781 282.858C22.5781 274.33 26.2429 266.64 32.1114 261.204C32.4065 260.931 32.8673 260.949 33.1406 261.244ZM73.1876 261.244C73.4609 260.949 73.9216 260.931 74.2167 261.204C80.0853 266.64 83.75 274.33 83.75 282.858C83.75 291.385 80.0853 299.075 74.2167 304.511C73.9216 304.784 73.4609 304.766 73.1876 304.471C72.9143 304.176 72.9319 303.716 73.227 303.442C78.815 298.266 82.2935 290.957 82.2935 282.858C82.2935 274.758 78.815 267.449 73.227 262.273C72.9319 262 72.9143 261.539 73.1876 261.244Z" fill="#F9DF5F"/>
<path fill-rule="evenodd" clip-rule="evenodd" d="M25.1155 253.235C25.3876 253.532 25.3682 253.992 25.0721 254.264C17.249 261.454 12.3783 271.607 12.3783 282.858C12.3783 294.108 17.249 304.262 25.0721 311.451C25.3682 311.723 25.3876 312.184 25.1155 312.48C24.8434 312.776 24.3827 312.796 24.0865 312.523C15.9821 305.076 10.9219 294.54 10.9219 282.858C10.9219 271.175 15.9821 260.64 24.0865 253.192C24.3827 252.92 24.8434 252.939 25.1155 253.235ZM81.2037 253.235C81.4759 252.939 81.9365 252.92 82.2327 253.192C90.3371 260.64 95.3973 271.175 95.3973 282.858C95.3973 294.54 90.3371 305.076 82.2327 312.523C81.9365 312.796 81.4759 312.776 81.2037 312.48C80.9316 312.184 80.951 311.723 81.2472 311.451C89.0702 304.262 93.9409 294.108 93.9409 282.858C93.9409 271.607 89.0702 261.454 81.2472 254.264C80.951 253.992 80.9316 253.532 81.2037 253.235Z" fill="#F9DF5F"/>
<path fill-rule="evenodd" clip-rule="evenodd" d="M104.866 403.745H1.45647V409.571H104.866V403.745ZM0 402.289V411.027H106.323V402.289H0Z" fill="#F9DF5F"/>
<path fill-rule="evenodd" clip-rule="evenodd" d="M95.3973 403.745L10.9219 403.745L48.789 282.858L57.5278 282.858L95.3973 403.745ZM81.6612 364.769L93.2266 401.688L54.6442 379.974L81.6612 364.769ZM79.9574 364.056L26.3611 364.056L53.1594 379.138L79.9574 364.056ZM51.6746 379.974L24.6573 364.769L13.0926 401.688L51.6746 379.974ZM14.9946 402.289L91.3246 402.289L53.1594 380.809L14.9946 402.289ZM26.0314 362.6L80.287 362.6L53.159 344.902L26.0314 362.6ZM54.4918 344.033L80.4755 360.984L71.6573 332.834L54.4918 344.033ZM70.2494 332.014L53.159 343.163L36.0685 332.014L70.2494 332.014ZM35.3737 330.557L70.9441 330.557L70.9053 330.434L53.1587 311.448L35.4125 330.434L35.3737 330.557ZM36.4173 327.226L52.1619 310.381L44.3213 301.993L36.4173 327.226ZM45.1058 300.7L53.1587 309.315L61.2114 300.7L45.1058 300.7ZM54.1555 310.381L69.9004 327.226L61.9959 301.993L54.1555 310.381ZM61.1345 299.243L56.4578 284.314L49.859 284.314L45.1827 299.243L61.1345 299.243ZM34.6605 332.834L51.8262 344.033L25.8429 360.984L34.6605 332.834Z" fill="#F9DF5F"/>
<path d="M60.4436 282.858C60.4436 286.88 57.1832 290.14 53.1613 290.14C49.1393 290.14 45.8789 286.88 45.8789 282.858C45.8789 278.836 49.1393 275.575 53.1613 275.575C57.1832 275.575 60.4436 278.836 60.4436 282.858Z" fill="#F9DF5F"/>
<path fill-rule="evenodd" clip-rule="evenodd" d="M53.1613 288.684C56.3788 288.684 58.9872 286.075 58.9872 282.858C58.9872 279.64 56.3788 277.032 53.1613 277.032C49.9437 277.032 47.3354 279.64 47.3354 282.858C47.3354 286.075 49.9437 288.684 53.1613 288.684ZM53.1613 290.14C57.1832 290.14 60.4436 286.88 60.4436 282.858C60.4436 278.836 57.1832 275.575 53.1613 275.575C49.1393 275.575 45.8789 278.836 45.8789 282.858C45.8789 286.88 49.1393 290.14 53.1613 290.14Z" fill="#F9DF5F"/>
<path fill-rule="evenodd" clip-rule="evenodd" d="M274.188 93.5847H232.586V141.526H274.188V93.5847ZM232 93V142.111H274.774V93H232Z" fill="#A6A6A5"/>
<path fill-rule="evenodd" clip-rule="evenodd" d="M270.623 97.1455H236.147V104.697H270.623V97.1455ZM235.562 96.5646V105.278H271.208V96.5646H235.562Z" fill="#A6A6A5"/>
<path fill-rule="evenodd" clip-rule="evenodd" d="M240.155 99.9708H238.492V101.872H240.155V99.9708ZM237.938 99.3372V102.506H240.71V99.3372H237.938Z" fill="#A6A6A5"/>
<path fill-rule="evenodd" clip-rule="evenodd" d="M244.437 99.9708H242.536V101.872H244.437V99.9708ZM241.902 99.3372V102.506H245.071V99.3372H241.902Z" fill="#A6A6A5"/>
<path fill-rule="evenodd" clip-rule="evenodd" d="M248.472 99.9708H246.808V101.872H248.472V99.9708ZM246.254 99.3372V102.506H249.026V99.3372H246.254Z" fill="#A6A6A5"/>
<path fill-rule="evenodd" clip-rule="evenodd" d="M266.613 100.921C266.613 101.446 266.985 101.872 267.445 101.872C267.904 101.872 268.277 101.446 268.277 100.921C268.277 100.396 267.904 99.9708 267.445 99.9708C266.985 99.9708 266.613 100.396 266.613 100.921ZM267.445 99.3372C266.679 99.3372 266.059 100.046 266.059 100.921C266.059 101.796 266.679 102.506 267.445 102.506C268.21 102.506 268.831 101.796 268.831 100.921C268.831 100.046 268.21 99.3372 267.445 99.3372Z" fill="#A6A6A5"/>
<path fill-rule="evenodd" clip-rule="evenodd" d="M270.623 108.235H236.147V115.786H270.623V108.235ZM235.562 107.654V116.367H271.208V107.654H235.562Z" fill="#A6A6A5"/>
<path fill-rule="evenodd" clip-rule="evenodd" d="M240.155 111.06H238.492V112.961H240.155V111.06ZM237.938 110.426V113.595H240.71V110.426H237.938Z" fill="#A6A6A5"/>
<path fill-rule="evenodd" clip-rule="evenodd" d="M244.437 111.06H242.536V112.961H244.437V111.06ZM241.902 110.426V113.595H245.071V110.426H241.902Z" fill="#A6A6A5"/>
<path fill-rule="evenodd" clip-rule="evenodd" d="M248.472 111.06H246.808V112.961H248.472V111.06ZM246.254 110.426V113.595H249.026V110.426H246.254Z" fill="#A6A6A5"/>
<path fill-rule="evenodd" clip-rule="evenodd" d="M266.613 112.01C266.613 112.535 266.985 112.961 267.445 112.961C267.904 112.961 268.277 112.535 268.277 112.01C268.277 111.485 267.904 111.06 267.445 111.06C266.985 111.06 266.613 111.485 266.613 112.01ZM267.445 110.426C266.679 110.426 266.059 111.135 266.059 112.01C266.059 112.885 266.679 113.595 267.445 113.595C268.21 113.595 268.831 112.885 268.831 112.01C268.831 111.135 268.21 110.426 267.445 110.426Z" fill="#A6A6A5"/>
<path fill-rule="evenodd" clip-rule="evenodd" d="M270.623 119.325H236.147V126.876H270.623V119.325ZM235.562 118.744V127.457H271.208V118.744H235.562Z" fill="#A6A6A5"/>
<path fill-rule="evenodd" clip-rule="evenodd" d="M240.155 122.15H238.492V124.051H240.155V122.15ZM237.938 121.516V124.685H240.71V121.516H237.938Z" fill="#A6A6A5"/>
<path fill-rule="evenodd" clip-rule="evenodd" d="M244.437 122.15H242.536V124.051H244.437V122.15ZM241.902 121.516V124.685H245.071V121.516H241.902Z" fill="#A6A6A5"/>
<path fill-rule="evenodd" clip-rule="evenodd" d="M248.472 122.15H246.808V124.051H248.472V122.15ZM246.254 121.516V124.685H249.026V121.516H246.254Z" fill="#A6A6A5"/>
<path fill-rule="evenodd" clip-rule="evenodd" d="M266.613 123.1C266.613 123.625 266.985 124.051 267.445 124.051C267.904 124.051 268.277 123.625 268.277 123.1C268.277 122.575 267.904 122.15 267.445 122.15C266.985 122.15 266.613 122.575 266.613 123.1ZM267.445 121.516C266.679 121.516 266.059 122.226 266.059 123.1C266.059 123.975 266.679 124.685 267.445 124.685C268.21 124.685 268.831 123.975 268.831 123.1C268.831 122.226 268.21 121.516 267.445 121.516Z" fill="#A6A6A5"/>
<path fill-rule="evenodd" clip-rule="evenodd" d="M270.623 130.414H236.147V137.966H270.623V130.414ZM235.562 129.833V138.547H271.208V129.833H235.562Z" fill="#A6A6A5"/>
<path fill-rule="evenodd" clip-rule="evenodd" d="M240.155 133.24H238.492V135.141H240.155V133.24ZM237.938 132.606V135.774H240.71V132.606H237.938Z" fill="#A6A6A5"/>
<path fill-rule="evenodd" clip-rule="evenodd" d="M244.437 133.24H242.536V135.141H244.437V133.24ZM241.902 132.606V135.774H245.071V132.606H241.902Z" fill="#A6A6A5"/>
<path fill-rule="evenodd" clip-rule="evenodd" d="M248.472 133.24H246.808V135.141H248.472V133.24ZM246.254 132.606V135.774H249.026V132.606H246.254Z" fill="#A6A6A5"/>
<path fill-rule="evenodd" clip-rule="evenodd" d="M266.613 134.19C266.613 134.715 266.985 135.141 267.445 135.141C267.904 135.141 268.277 134.715 268.277 134.19C268.277 133.665 267.904 133.24 267.445 133.24C266.985 133.24 266.613 133.665 266.613 134.19ZM267.445 132.606C266.679 132.606 266.059 133.315 266.059 134.19C266.059 135.065 266.679 135.774 267.445 135.774C268.21 135.774 268.831 135.065 268.831 134.19C268.831 133.315 268.21 132.606 267.445 132.606Z" fill="#A6A6A5"/>
<path fill-rule="evenodd" clip-rule="evenodd" d="M274.188 241.585H232.586V289.526H274.188V241.585ZM232 241V290.111H274.774V241H232Z" fill="#F9DF5F"/>
<path fill-rule="evenodd" clip-rule="evenodd" d="M270.623 245.145H236.147V252.697H270.623V245.145ZM235.562 244.565V253.278H271.208V244.565H235.562Z" fill="#F9DF5F"/>
<path fill-rule="evenodd" clip-rule="evenodd" d="M240.155 247.971H238.492V249.872H240.155V247.971ZM237.938 247.337V250.506H240.71V247.337H237.938Z" fill="#F9DF5F"/>
<path fill-rule="evenodd" clip-rule="evenodd" d="M244.437 247.971H242.536V249.872H244.437V247.971ZM241.902 247.337V250.506H245.071V247.337H241.902Z" fill="#F9DF5F"/>
<path fill-rule="evenodd" clip-rule="evenodd" d="M248.472 247.971H246.808V249.872H248.472V247.971ZM246.254 247.337V250.506H249.026V247.337H246.254Z" fill="#F9DF5F"/>
<path fill-rule="evenodd" clip-rule="evenodd" d="M266.613 248.921C266.613 249.446 266.985 249.872 267.445 249.872C267.904 249.872 268.277 249.446 268.277 248.921C268.277 248.396 267.904 247.971 267.445 247.971C266.985 247.971 266.613 248.396 266.613 248.921ZM267.445 247.337C266.679 247.337 266.059 248.046 266.059 248.921C266.059 249.796 266.679 250.506 267.445 250.506C268.21 250.506 268.831 249.796 268.831 248.921C268.831 248.046 268.21 247.337 267.445 247.337Z" fill="#F9DF5F"/>
<path fill-rule="evenodd" clip-rule="evenodd" d="M270.623 256.235H236.147V263.786H270.623V256.235ZM235.562 255.654V264.367H271.208V255.654H235.562Z" fill="#F9DF5F"/>
<path fill-rule="evenodd" clip-rule="evenodd" d="M240.155 259.06H238.492V260.961H240.155V259.06ZM237.938 258.426V261.595H240.71V258.426H237.938Z" fill="#F9DF5F"/>
<path fill-rule="evenodd" clip-rule="evenodd" d="M244.437 259.06H242.536V260.961H244.437V259.06ZM241.902 258.426V261.595H245.071V258.426H241.902Z" fill="#F9DF5F"/>
<path fill-rule="evenodd" clip-rule="evenodd" d="M248.472 259.06H246.808V260.961H248.472V259.06ZM246.254 258.426V261.595H249.026V258.426H246.254Z" fill="#F9DF5F"/>
<path fill-rule="evenodd" clip-rule="evenodd" d="M266.613 260.01C266.613 260.535 266.985 260.961 267.445 260.961C267.904 260.961 268.277 260.535 268.277 260.01C268.277 259.485 267.904 259.06 267.445 259.06C266.985 259.06 266.613 259.485 266.613 260.01ZM267.445 258.426C266.679 258.426 266.059 259.135 266.059 260.01C266.059 260.885 266.679 261.595 267.445 261.595C268.21 261.595 268.831 260.885 268.831 260.01C268.831 259.135 268.21 258.426 267.445 258.426Z" fill="#F9DF5F"/>
<path fill-rule="evenodd" clip-rule="evenodd" d="M270.623 267.325H236.147V274.876H270.623V267.325ZM235.562 266.744V275.457H271.208V266.744H235.562Z" fill="#F9DF5F"/>
<path fill-rule="evenodd" clip-rule="evenodd" d="M240.155 270.15H238.492V272.051H240.155V270.15ZM237.938 269.516V272.685H240.71V269.516H237.938Z" fill="#F9DF5F"/>
<path fill-rule="evenodd" clip-rule="evenodd" d="M244.437 270.15H242.536V272.051H244.437V270.15ZM241.902 269.516V272.685H245.071V269.516H241.902Z" fill="#F9DF5F"/>
<path fill-rule="evenodd" clip-rule="evenodd" d="M248.472 270.15H246.808V272.051H248.472V270.15ZM246.254 269.516V272.685H249.026V269.516H246.254Z" fill="#F9DF5F"/>
<path fill-rule="evenodd" clip-rule="evenodd" d="M266.613 271.1C266.613 271.625 266.985 272.051 267.445 272.051C267.904 272.051 268.277 271.625 268.277 271.1C268.277 270.575 267.904 270.15 267.445 270.15C266.985 270.15 266.613 270.575 266.613 271.1ZM267.445 269.516C266.679 269.516 266.059 270.226 266.059 271.1C266.059 271.975 266.679 272.685 267.445 272.685C268.21 272.685 268.831 271.975 268.831 271.1C268.831 270.226 268.21 269.516 267.445 269.516Z" fill="#F9DF5F"/>
<path fill-rule="evenodd" clip-rule="evenodd" d="M270.623 278.414H236.147V285.966H270.623V278.414ZM235.562 277.833V286.547H271.208V277.833H235.562Z" fill="#F9DF5F"/>
<path fill-rule="evenodd" clip-rule="evenodd" d="M240.155 281.24H238.492V283.141H240.155V281.24ZM237.938 280.606V283.774H240.71V280.606H237.938Z" fill="#F9DF5F"/>
<path fill-rule="evenodd" clip-rule="evenodd" d="M244.437 281.24H242.536V283.141H244.437V281.24ZM241.902 280.606V283.774H245.071V280.606H241.902Z" fill="#F9DF5F"/>
<path fill-rule="evenodd" clip-rule="evenodd" d="M248.472 281.24H246.808V283.141H248.472V281.24ZM246.254 280.606V283.774H249.026V280.606H246.254Z" fill="#F9DF5F"/>
<path fill-rule="evenodd" clip-rule="evenodd" d="M266.613 282.19C266.613 282.715 266.985 283.141 267.445 283.141C267.904 283.141 268.277 282.715 268.277 282.19C268.277 281.665 267.904 281.24 267.445 281.24C266.985 281.24 266.613 281.665 266.613 282.19ZM267.445 280.606C266.679 280.606 266.059 281.315 266.059 282.19C266.059 283.065 266.679 283.774 267.445 283.774C268.21 283.774 268.831 283.065 268.831 282.19C268.831 281.315 268.21 280.606 267.445 280.606Z" fill="#F9DF5F"/>
<path fill-rule="evenodd" clip-rule="evenodd" d="M689.797 366.592H700.817V380.061H689.797V366.592ZM690.722 367.508V379.145H699.892V367.508H690.722Z" fill="#F9DF5F"/>
<path fill-rule="evenodd" clip-rule="evenodd" d="M702.138 367.816H704.28C704.398 367.816 704.493 367.922 704.493 368.053C704.493 368.184 704.398 368.29 704.28 368.29H702.562V371.529H700.419C700.302 371.529 700.207 371.423 700.207 371.293C700.207 371.162 700.302 371.056 700.419 371.056H702.138V367.816ZM700.207 373.02C700.207 372.89 700.302 372.784 700.419 372.784H703.122C703.239 372.784 703.334 372.89 703.334 373.02C703.334 373.151 703.239 373.257 703.122 373.257H700.419C700.302 373.257 700.207 373.151 700.207 373.02ZM700.207 374.748C700.207 374.618 700.302 374.512 700.419 374.512H702.562V377.751H704.28C704.398 377.751 704.493 377.857 704.493 377.988C704.493 378.119 704.398 378.225 704.28 378.225H702.138V374.985H700.419C700.302 374.985 700.207 374.879 700.207 374.748Z" fill="#F9DF5F"/>
<path fill-rule="evenodd" clip-rule="evenodd" d="M688.48 367.816H686.337C686.22 367.816 686.124 367.922 686.124 368.053C686.124 368.184 686.22 368.29 686.337 368.29H688.055V371.529H690.198C690.315 371.529 690.41 371.423 690.41 371.293C690.41 371.162 690.315 371.056 690.198 371.056H688.48V367.816ZM690.41 373.02C690.41 372.89 690.315 372.784 690.198 372.784H687.495C687.378 372.784 687.283 372.89 687.283 373.02C687.283 373.151 687.378 373.257 687.495 373.257H690.198C690.315 373.257 690.41 373.151 690.41 373.02ZM690.41 374.748C690.41 374.618 690.315 374.512 690.198 374.512H688.055V377.751H686.337C686.22 377.751 686.124 377.857 686.124 377.988C686.124 378.119 686.22 378.225 686.337 378.225H688.48V374.985H690.198C690.315 374.985 690.41 374.879 690.41 374.748Z" fill="#F9DF5F"/>
<path fill-rule="evenodd" clip-rule="evenodd" d="M699.125 381.501L699.125 382.326C699.125 382.428 699.23 382.51 699.359 382.51C699.489 382.51 699.594 382.428 699.594 382.326L699.594 381.132L697.248 381.132L697.248 379.633C697.248 379.532 697.143 379.449 697.014 379.449C696.884 379.449 696.779 379.532 696.779 379.633L696.779 381.501L699.125 381.501ZM695.308 379.449C695.438 379.449 695.543 379.532 695.543 379.633L695.543 380.98C695.543 381.082 695.438 381.164 695.308 381.164C695.179 381.164 695.073 381.082 695.073 380.98L695.073 379.633C695.073 379.532 695.179 379.449 695.308 379.449ZM693.602 379.449C693.732 379.449 693.837 379.532 693.837 379.633L693.837 381.501L691.491 381.501L691.491 382.326C691.491 382.428 691.386 382.51 691.257 382.51C691.127 382.51 691.022 382.428 691.022 382.326L691.022 381.132L693.368 381.132L693.368 379.633C693.368 379.532 693.473 379.449 693.602 379.449Z" fill="#F9DF5F"/>
<path fill-rule="evenodd" clip-rule="evenodd" d="M699.125 363.944L699.125 362.789C699.125 362.646 699.23 362.531 699.359 362.531C699.489 362.531 699.594 362.646 699.594 362.789L699.594 364.461L697.248 364.461L697.248 366.558C697.248 366.701 697.143 366.817 697.014 366.817C696.884 366.817 696.779 366.701 696.779 366.558L696.779 363.944L699.125 363.944ZM695.308 366.817C695.438 366.817 695.543 366.701 695.543 366.558L695.543 364.674C695.543 364.531 695.438 364.416 695.308 364.416C695.179 364.416 695.073 364.531 695.073 364.674L695.073 366.558C695.073 366.701 695.179 366.817 695.308 366.817ZM693.602 366.817C693.732 366.817 693.837 366.701 693.837 366.558L693.837 363.944L691.491 363.944L691.491 362.789C691.491 362.646 691.386 362.531 691.257 362.531C691.127 362.531 691.022 362.646 691.022 362.789L691.022 364.461L693.368 364.461L693.368 366.558C693.368 366.701 693.473 366.817 693.602 366.817Z" fill="#F9DF5F"/>
<mask id="path-79-inside-1" fill="white">
<path fill-rule="evenodd" clip-rule="evenodd" d="M708.154 347.906H681.846C681.336 347.906 680.923 348.312 680.923 348.812V400.902C680.923 401.403 681.336 401.808 681.846 401.808H708.154C708.664 401.808 709.077 401.403 709.077 400.902V348.812C709.077 348.312 708.664 347.906 708.154 347.906ZM681.846 347C680.827 347 680 347.811 680 348.812V400.902C680 401.903 680.827 402.714 681.846 402.714H708.154C709.173 402.714 710 401.903 710 400.902V348.812C710 347.811 709.173 347 708.154 347H681.846Z"/>
</mask>
<path fill-rule="evenodd" clip-rule="evenodd" d="M708.154 347.906H681.846C681.336 347.906 680.923 348.312 680.923 348.812V400.902C680.923 401.403 681.336 401.808 681.846 401.808H708.154C708.664 401.808 709.077 401.403 709.077 400.902V348.812C709.077 348.312 708.664 347.906 708.154 347.906ZM681.846 347C680.827 347 680 347.811 680 348.812V400.902C680 401.903 680.827 402.714 681.846 402.714H708.154C709.173 402.714 710 401.903 710 400.902V348.812C710 347.811 709.173 347 708.154 347H681.846Z" fill="#F9DF5F"/>
<path d="M681.846 349.906H708.154V345.906H681.846V349.906ZM682.923 348.812C682.923 349.451 682.405 349.906 681.846 349.906V345.906C680.267 345.906 678.923 347.172 678.923 348.812H682.923ZM682.923 400.902V348.812H678.923V400.902H682.923ZM681.846 399.808C682.405 399.808 682.923 400.263 682.923 400.902H678.923C678.923 402.543 680.267 403.808 681.846 403.808V399.808ZM708.154 399.808H681.846V403.808H708.154V399.808ZM707.077 400.902C707.077 400.263 707.595 399.808 708.154 399.808V403.808C709.733 403.808 711.077 402.543 711.077 400.902H707.077ZM707.077 348.812V400.902H711.077V348.812H707.077ZM708.154 349.906C707.595 349.906 707.077 349.451 707.077 348.812H711.077C711.077 347.172 709.733 345.906 708.154 345.906V349.906ZM682 348.812C682 348.876 681.971 348.929 681.942 348.958C681.913 348.986 681.876 349 681.846 349V345C679.758 345 678 346.671 678 348.812H682ZM682 400.902V348.812H678V400.902H682ZM681.846 400.714C681.876 400.714 681.913 400.728 681.942 400.756C681.971 400.785 682 400.839 682 400.902H678C678 403.043 679.758 404.714 681.846 404.714V400.714ZM708.154 400.714H681.846V404.714H708.154V400.714ZM708 400.902C708 400.839 708.029 400.785 708.058 400.756C708.087 400.728 708.124 400.714 708.154 400.714V404.714C710.242 404.714 712 403.043 712 400.902H708ZM708 348.812V400.902H712V348.812H708ZM708.154 349C708.124 349 708.087 348.986 708.058 348.958C708.029 348.929 708 348.876 708 348.812H712C712 346.671 710.242 345 708.154 345V349ZM681.846 349H708.154V345H681.846V349Z" fill="#F9DF5F" mask="url(#path-79-inside-1)"/>
<mask id="path-81-inside-2" fill="white">
<path fill-rule="evenodd" clip-rule="evenodd" d="M705.726 350.35H684.275C683.771 350.35 683.362 350.753 683.362 351.251V395.402C683.362 395.9 683.771 396.303 684.275 396.303H705.726C706.23 396.303 706.638 395.9 706.638 395.402V351.251C706.638 350.753 706.23 350.35 705.726 350.35ZM684.275 349.449C683.267 349.449 682.449 350.256 682.449 351.251V395.402C682.449 396.397 683.267 397.204 684.275 397.204H705.726C706.734 397.204 707.551 396.397 707.551 395.402V351.251C707.551 350.256 706.734 349.449 705.726 349.449H684.275Z"/>
</mask>
<path fill-rule="evenodd" clip-rule="evenodd" d="M705.726 350.35H684.275C683.771 350.35 683.362 350.753 683.362 351.251V395.402C683.362 395.9 683.771 396.303 684.275 396.303H705.726C706.23 396.303 706.638 395.9 706.638 395.402V351.251C706.638 350.753 706.23 350.35 705.726 350.35ZM684.275 349.449C683.267 349.449 682.449 350.256 682.449 351.251V395.402C682.449 396.397 683.267 397.204 684.275 397.204H705.726C706.734 397.204 707.551 396.397 707.551 395.402V351.251C707.551 350.256 706.734 349.449 705.726 349.449H684.275Z" fill="#F9DF5F"/>
<path d="M684.275 352.35H705.726V348.35H684.275V352.35ZM685.362 351.251C685.362 351.882 684.851 352.35 684.275 352.35V348.35C682.691 348.35 681.362 349.624 681.362 351.251H685.362ZM685.362 395.402V351.251H681.362V395.402H685.362ZM684.275 394.303C684.851 394.303 685.362 394.771 685.362 395.402H681.362C681.362 397.029 682.691 398.303 684.275 398.303V394.303ZM705.726 394.303H684.275V398.303H705.726V394.303ZM704.638 395.402C704.638 394.771 705.15 394.303 705.726 394.303V398.303C707.31 398.303 708.638 397.029 708.638 395.402H704.638ZM704.638 351.251V395.402H708.638V351.251H704.638ZM705.726 352.35C705.15 352.35 704.638 351.882 704.638 351.251H708.638C708.638 349.624 707.31 348.35 705.726 348.35V352.35ZM684.449 351.251C684.449 351.385 684.347 351.449 684.275 351.449V347.449C682.187 347.449 680.449 349.127 680.449 351.251H684.449ZM684.449 395.402V351.251H680.449V395.402H684.449ZM684.275 395.204C684.347 395.204 684.449 395.268 684.449 395.402H680.449C680.449 397.526 682.187 399.204 684.275 399.204V395.204ZM705.726 395.204H684.275V399.204H705.726V395.204ZM705.551 395.402C705.551 395.268 705.654 395.204 705.726 395.204V399.204C707.814 399.204 709.551 397.526 709.551 395.402H705.551ZM705.551 351.251V395.402H709.551V351.251H705.551ZM705.726 351.449C705.654 351.449 705.551 351.385 705.551 351.251H709.551C709.551 349.127 707.814 347.449 705.726 347.449V351.449ZM684.275 351.449H705.726V347.449H684.275V351.449Z" fill="#F9DF5F" mask="url(#path-81-inside-2)"/>
<mask id="path-83-inside-3" fill="white">
<path fill-rule="evenodd" clip-rule="evenodd" d="M695.305 400.571C695.813 400.571 696.224 400.16 696.224 399.653C696.224 399.146 695.813 398.735 695.305 398.735C694.798 398.735 694.387 399.146 694.387 399.653C694.387 400.16 694.798 400.571 695.305 400.571ZM695.305 401.49C696.32 401.49 697.142 400.667 697.142 399.653C697.142 398.639 696.32 397.816 695.305 397.816C694.291 397.816 693.469 398.639 693.469 399.653C693.469 400.667 694.291 401.49 695.305 401.49Z"/>
</mask>
<path fill-rule="evenodd" clip-rule="evenodd" d="M695.305 400.571C695.813 400.571 696.224 400.16 696.224 399.653C696.224 399.146 695.813 398.735 695.305 398.735C694.798 398.735 694.387 399.146 694.387 399.653C694.387 400.16 694.798 400.571 695.305 400.571ZM695.305 401.49C696.32 401.49 697.142 400.667 697.142 399.653C697.142 398.639 696.32 397.816 695.305 397.816C694.291 397.816 693.469 398.639 693.469 399.653C693.469 400.667 694.291 401.49 695.305 401.49Z" fill="#F9DF5F"/>
<path d="M694.224 399.653C694.224 399.056 694.708 398.571 695.305 398.571V402.571C696.917 402.571 698.224 401.265 698.224 399.653H694.224ZM695.305 400.735C694.708 400.735 694.224 400.25 694.224 399.653H698.224C698.224 398.041 696.917 396.735 695.305 396.735V400.735ZM696.387 399.653C696.387 400.25 695.903 400.735 695.305 400.735V396.735C693.694 396.735 692.387 398.041 692.387 399.653H696.387ZM695.305 398.571C695.903 398.571 696.387 399.056 696.387 399.653H692.387C692.387 401.265 693.694 402.571 695.305 402.571V398.571ZM695.142 399.653C695.142 399.563 695.215 399.49 695.305 399.49V403.49C697.424 403.49 699.142 401.772 699.142 399.653H695.142ZM695.305 399.816C695.215 399.816 695.142 399.743 695.142 399.653H699.142C699.142 397.534 697.424 395.816 695.305 395.816V399.816ZM695.469 399.653C695.469 399.743 695.396 399.816 695.305 399.816V395.816C693.187 395.816 691.469 397.534 691.469 399.653H695.469ZM695.305 399.49C695.396 399.49 695.469 399.563 695.469 399.653H691.469C691.469 401.772 693.187 403.49 695.305 403.49V399.49Z" fill="#F9DF5F" mask="url(#path-83-inside-3)"/>
<mask id="path-85-inside-4" fill="white">
<path fill-rule="evenodd" clip-rule="evenodd" d="M501.154 351.906H474.846C474.336 351.906 473.923 352.312 473.923 352.812V404.902C473.923 405.403 474.336 405.808 474.846 405.808H501.154C501.664 405.808 502.077 405.403 502.077 404.902V352.812C502.077 352.312 501.664 351.906 501.154 351.906ZM474.846 351C473.827 351 473 351.811 473 352.812V404.902C473 405.903 473.827 406.714 474.846 406.714H501.154C502.173 406.714 503 405.903 503 404.902V352.812C503 351.811 502.173 351 501.154 351H474.846Z"/>
</mask>
<path fill-rule="evenodd" clip-rule="evenodd" d="M501.154 351.906H474.846C474.336 351.906 473.923 352.312 473.923 352.812V404.902C473.923 405.403 474.336 405.808 474.846 405.808H501.154C501.664 405.808 502.077 405.403 502.077 404.902V352.812C502.077 352.312 501.664 351.906 501.154 351.906ZM474.846 351C473.827 351 473 351.811 473 352.812V404.902C473 405.903 473.827 406.714 474.846 406.714H501.154C502.173 406.714 503 405.903 503 404.902V352.812C503 351.811 502.173 351 501.154 351H474.846Z" fill="#F9DF5F"/>
<path d="M474.846 353.906H501.154V349.906H474.846V353.906ZM475.923 352.812C475.923 353.451 475.405 353.906 474.846 353.906V349.906C473.267 349.906 471.923 351.172 471.923 352.812H475.923ZM475.923 404.902V352.812H471.923V404.902H475.923ZM474.846 403.808C475.405 403.808 475.923 404.263 475.923 404.902H471.923C471.923 406.543 473.267 407.808 474.846 407.808V403.808ZM501.154 403.808H474.846V407.808H501.154V403.808ZM500.077 404.902C500.077 404.263 500.595 403.808 501.154 403.808V407.808C502.733 407.808 504.077 406.543 504.077 404.902H500.077ZM500.077 352.812V404.902H504.077V352.812H500.077ZM501.154 353.906C500.595 353.906 500.077 353.451 500.077 352.812H504.077C504.077 351.172 502.733 349.906 501.154 349.906V353.906ZM475 352.812C475 352.876 474.971 352.929 474.942 352.958C474.913 352.986 474.876 353 474.846 353V349C472.758 349 471 350.671 471 352.812H475ZM475 404.902V352.812H471V404.902H475ZM474.846 404.714C474.876 404.714 474.913 404.728 474.942 404.756C474.971 404.785 475 404.839 475 404.902H471C471 407.043 472.758 408.714 474.846 408.714V404.714ZM501.154 404.714H474.846V408.714H501.154V404.714ZM501 404.902C501 404.839 501.029 404.785 501.058 404.756C501.087 404.728 501.124 404.714 501.154 404.714V408.714C503.242 408.714 505 407.043 505 404.902H501ZM501 352.812V404.902H505V352.812H501ZM501.154 353C501.124 353 501.087 352.986 501.058 352.958C501.029 352.929 501 352.876 501 352.812H505C505 350.671 503.242 349 501.154 349V353ZM474.846 353H501.154V349H474.846V353Z" fill="#F9DF5F" mask="url(#path-85-inside-4)"/>
<mask id="path-87-inside-5" fill="white">
<path fill-rule="evenodd" clip-rule="evenodd" d="M498.726 354.35H477.275C476.771 354.35 476.362 354.753 476.362 355.251V399.402C476.362 399.9 476.771 400.303 477.275 400.303H498.726C499.23 400.303 499.638 399.9 499.638 399.402V355.251C499.638 354.753 499.23 354.35 498.726 354.35ZM477.275 353.449C476.267 353.449 475.449 354.256 475.449 355.251V399.402C475.449 400.397 476.267 401.204 477.275 401.204H498.726C499.734 401.204 500.551 400.397 500.551 399.402V355.251C500.551 354.256 499.734 353.449 498.726 353.449H477.275Z"/>
</mask>
<path fill-rule="evenodd" clip-rule="evenodd" d="M498.726 354.35H477.275C476.771 354.35 476.362 354.753 476.362 355.251V399.402C476.362 399.9 476.771 400.303 477.275 400.303H498.726C499.23 400.303 499.638 399.9 499.638 399.402V355.251C499.638 354.753 499.23 354.35 498.726 354.35ZM477.275 353.449C476.267 353.449 475.449 354.256 475.449 355.251V399.402C475.449 400.397 476.267 401.204 477.275 401.204H498.726C499.734 401.204 500.551 400.397 500.551 399.402V355.251C500.551 354.256 499.734 353.449 498.726 353.449H477.275Z" fill="#F9DF5F"/>
<path d="M477.275 356.35H498.726V352.35H477.275V356.35ZM478.362 355.251C478.362 355.882 477.851 356.35 477.275 356.35V352.35C475.691 352.35 474.362 353.624 474.362 355.251H478.362ZM478.362 399.402V355.251H474.362V399.402H478.362ZM477.275 398.303C477.851 398.303 478.362 398.771 478.362 399.402H474.362C474.362 401.029 475.691 402.303 477.275 402.303V398.303ZM498.726 398.303H477.275V402.303H498.726V398.303ZM497.638 399.402C497.638 398.771 498.15 398.303 498.726 398.303V402.303C500.31 402.303 501.638 401.029 501.638 399.402H497.638ZM497.638 355.251V399.402H501.638V355.251H497.638ZM498.726 356.35C498.15 356.35 497.638 355.882 497.638 355.251H501.638C501.638 353.624 500.31 352.35 498.726 352.35V356.35ZM477.449 355.251C477.449 355.385 477.347 355.449 477.275 355.449V351.449C475.187 351.449 473.449 353.127 473.449 355.251H477.449ZM477.449 399.402V355.251H473.449V399.402H477.449ZM477.275 399.204C477.347 399.204 477.449 399.268 477.449 399.402H473.449C473.449 401.526 475.187 403.204 477.275 403.204V399.204ZM498.726 399.204H477.275V403.204H498.726V399.204ZM498.551 399.402C498.551 399.268 498.654 399.204 498.726 399.204V403.204C500.814 403.204 502.551 401.526 502.551 399.402H498.551ZM498.551 355.251V399.402H502.551V355.251H498.551ZM498.726 355.449C498.654 355.449 498.551 355.385 498.551 355.251H502.551C502.551 353.127 500.814 351.449 498.726 351.449V355.449ZM477.275 355.449H498.726V351.449H477.275V355.449Z" fill="#F9DF5F" mask="url(#path-87-inside-5)"/>
<path d="M488.244 375.119C486.363 375.119 484.867 376.614 484.867 378.495C484.867 380.377 486.363 381.872 488.244 381.872C490.125 381.872 491.62 380.377 491.62 378.495C491.62 376.614 490.125 375.119 488.244 375.119ZM488.244 380.907C486.893 380.907 485.832 379.846 485.832 378.495C485.832 377.145 486.893 376.084 488.244 376.084C489.594 376.084 490.656 377.145 490.656 378.495C490.656 379.846 489.594 380.907 488.244 380.907Z" fill="#F9DF5F"/>
<path d="M495.334 376.904L493.983 376.469L493.694 375.746L494.369 374.492C494.514 374.202 494.465 373.816 494.224 373.575L493.067 372.417C492.825 372.176 492.439 372.128 492.15 372.273L490.896 372.948L490.172 372.659L489.738 371.308C489.642 371.019 489.352 370.777 489.015 370.777H487.375C487.037 370.777 486.747 371.019 486.699 371.356L486.265 372.707C485.976 372.755 485.734 372.852 485.493 372.996L484.239 372.321C483.95 372.176 483.564 372.224 483.323 372.466L482.165 373.623C481.924 373.865 481.875 374.25 482.02 374.54L482.647 375.746C482.551 375.987 482.454 376.276 482.358 376.518L481.007 376.952C480.718 377.048 480.477 377.338 480.477 377.675V379.315C480.477 379.653 480.718 379.942 481.055 380.039L482.406 380.473L482.695 381.197L482.02 382.451C481.875 382.74 481.924 383.126 482.165 383.367L483.323 384.525C483.564 384.766 483.95 384.814 484.239 384.67L485.493 383.994L486.217 384.284L486.651 385.683C486.747 385.972 487.037 386.213 487.375 386.213H489.015C489.352 386.213 489.642 385.972 489.738 385.683L490.172 384.284L490.896 383.994L492.15 384.67C492.439 384.814 492.825 384.766 493.067 384.525L494.224 383.367C494.465 383.126 494.514 382.74 494.369 382.451L493.694 381.197L493.983 380.473L495.382 380.039C495.671 379.942 495.913 379.653 495.913 379.315V377.675C495.913 377.338 495.671 377 495.334 376.904ZM494.948 379.171L493.211 379.701L493.163 379.942L492.729 380.955L492.584 381.197L493.452 382.788L492.488 383.753L490.896 382.885L490.655 383.03C490.317 383.223 489.979 383.367 489.642 383.464L489.4 383.512L488.87 385.249H487.519L486.989 383.512L486.747 383.464L485.734 383.03L485.493 382.885L483.901 383.753L482.937 382.788L483.805 381.197L483.66 380.955C483.467 380.618 483.323 380.28 483.226 379.942L483.178 379.701L481.441 379.171V377.82L483.081 377.338L483.178 377.096C483.274 376.711 483.419 376.373 483.612 376.035L483.757 375.794L482.937 374.202L483.901 373.237L485.445 374.106L485.686 373.961C486.024 373.768 486.362 373.623 486.747 373.527L486.989 373.43L487.519 371.742H488.87L489.4 373.43L489.642 373.527C489.979 373.623 490.317 373.768 490.655 373.961L490.896 374.106L492.488 373.237L493.452 374.202L492.584 375.794L492.729 376.035C492.922 376.373 493.067 376.711 493.163 377.048L493.211 377.289L494.948 377.82V379.171Z" fill="#F9DF5F"/>
<mask id="path-91-inside-6" fill="white">
<path fill-rule="evenodd" clip-rule="evenodd" d="M488.305 404.571C488.813 404.571 489.224 404.16 489.224 403.653C489.224 403.146 488.813 402.735 488.305 402.735C487.798 402.735 487.387 403.146 487.387 403.653C487.387 404.16 487.798 404.571 488.305 404.571ZM488.305 405.49C489.32 405.49 490.142 404.667 490.142 403.653C490.142 402.639 489.32 401.816 488.305 401.816C487.291 401.816 486.469 402.639 486.469 403.653C486.469 404.667 487.291 405.49 488.305 405.49Z"/>
</mask>
<path fill-rule="evenodd" clip-rule="evenodd" d="M488.305 404.571C488.813 404.571 489.224 404.16 489.224 403.653C489.224 403.146 488.813 402.735 488.305 402.735C487.798 402.735 487.387 403.146 487.387 403.653C487.387 404.16 487.798 404.571 488.305 404.571ZM488.305 405.49C489.32 405.49 490.142 404.667 490.142 403.653C490.142 402.639 489.32 401.816 488.305 401.816C487.291 401.816 486.469 402.639 486.469 403.653C486.469 404.667 487.291 405.49 488.305 405.49Z" fill="#F9DF5F"/>
<path d="M487.224 403.653C487.224 403.056 487.708 402.571 488.305 402.571V406.571C489.917 406.571 491.224 405.265 491.224 403.653H487.224ZM488.305 404.735C487.708 404.735 487.224 404.25 487.224 403.653H491.224C491.224 402.041 489.917 400.735 488.305 400.735V404.735ZM489.387 403.653C489.387 404.25 488.903 404.735 488.305 404.735V400.735C486.694 400.735 485.387 402.041 485.387 403.653H489.387ZM488.305 402.571C488.903 402.571 489.387 403.056 489.387 403.653H485.387C485.387 405.265 486.694 406.571 488.305 406.571V402.571ZM488.142 403.653C488.142 403.563 488.215 403.49 488.305 403.49V407.49C490.424 407.49 492.142 405.772 492.142 403.653H488.142ZM488.305 403.816C488.215 403.816 488.142 403.743 488.142 403.653H492.142C492.142 401.534 490.424 399.816 488.305 399.816V403.816ZM488.469 403.653C488.469 403.743 488.396 403.816 488.305 403.816V399.816C486.187 399.816 484.469 401.534 484.469 403.653H488.469ZM488.305 403.49C488.396 403.49 488.469 403.563 488.469 403.653H484.469C484.469 405.772 486.187 407.49 488.305 407.49V403.49Z" fill="#F9DF5F" mask="url(#path-91-inside-6)"/>
<path fill-rule="evenodd" clip-rule="evenodd" d="M578 165.014H519V178.192H578V165.014ZM518 164V179.205H579V164H518Z" fill="#A6A6A5"/>
<path fill-rule="evenodd" clip-rule="evenodd" d="M526 170.082H523V173.123H526V170.082ZM522 169.068V174.137H527V169.068H522Z" fill="#A6A6A5"/>
<path fill-rule="evenodd" clip-rule="evenodd" d="M533 170.082H530V173.123H533V170.082ZM529 169.068V174.137H534V169.068H529Z" fill="#A6A6A5"/>
<path fill-rule="evenodd" clip-rule="evenodd" d="M540 170.082H537V173.123H540V170.082ZM536 169.068V174.137H541V169.068H536Z" fill="#A6A6A5"/>
<path fill-rule="evenodd" clip-rule="evenodd" d="M571 171.603C571 172.443 571.672 173.123 572.5 173.123C573.328 173.123 574 172.443 574 171.603C574 170.763 573.328 170.082 572.5 170.082C571.672 170.082 571 170.763 571 171.603ZM572.5 169.068C571.119 169.068 570 170.203 570 171.603C570 173.002 571.119 174.137 572.5 174.137C573.881 174.137 575 173.002 575 171.603C575 170.203 573.881 169.068 572.5 169.068Z" fill="#A6A6A5"/>
<path fill-rule="evenodd" clip-rule="evenodd" d="M578 179.205H519V192.384H578V179.205ZM518 178.192V193.397H579V178.192H518Z" fill="#A6A6A5"/>
<path fill-rule="evenodd" clip-rule="evenodd" d="M526 184.274H523V187.315H526V184.274ZM522 183.26V188.329H527V183.26H522Z" fill="#A6A6A5"/>
<path fill-rule="evenodd" clip-rule="evenodd" d="M533 184.274H530V187.315H533V184.274ZM529 183.26V188.329H534V183.26H529Z" fill="#A6A6A5"/>
<path fill-rule="evenodd" clip-rule="evenodd" d="M540 184.274H537V187.315H540V184.274ZM536 183.26V188.329H541V183.26H536Z" fill="#A6A6A5"/>
<path fill-rule="evenodd" clip-rule="evenodd" d="M571 185.795C571 186.634 571.672 187.315 572.5 187.315C573.328 187.315 574 186.634 574 185.795C574 184.955 573.328 184.274 572.5 184.274C571.672 184.274 571 184.955 571 185.795ZM572.5 183.26C571.119 183.26 570 184.395 570 185.795C570 187.194 571.119 188.329 572.5 188.329C573.881 188.329 575 187.194 575 185.795C575 184.395 573.881 183.26 572.5 183.26Z" fill="#A6A6A5"/>
<path d="M548 192.384H549V197.452H548V192.384Z" fill="#A6A6A5"/>
<path d="M541.5 198.466V199.479H536.5V198.466H541.5Z" fill="#A6A6A5"/>
<path d="M560.5 198.466V199.479H555.5V198.466H560.5Z" fill="#A6A6A5"/>
<path fill-rule="evenodd" clip-rule="evenodd" d="M555 199.986V197.959H542V199.986H555ZM556 196.945H541V201H556V196.945Z" fill="#A6A6A5"/>
<path fill-rule="evenodd" clip-rule="evenodd" d="M709.09 109.913H667.896V142.783H709.09V109.913ZM667 109V143.696H709.985V109H667Z" fill="#A6A6A5"/>
<path fill-rule="evenodd" clip-rule="evenodd" d="M722.758 125.716L720.402 114.478H709.09V143.696H727V128.188L722.758 125.716ZM726.058 128.692L721.915 126.278L721.891 126.165H710.032V142.797H726.058V128.692ZM710.032 125.266H721.703L719.629 115.377H710.032V125.266Z" fill="#A6A6A5"/>
<path d="M723.415 144.609C723.415 148.139 720.809 151 717.594 151C714.38 151 711.773 148.139 711.773 144.609C711.773 141.079 714.38 138.217 717.594 138.217C720.809 138.217 723.415 141.079 723.415 144.609Z" fill="#101010"/>
<path fill-rule="evenodd" clip-rule="evenodd" d="M717.594 150.087C720.35 150.087 722.584 147.634 722.584 144.609C722.584 141.583 720.35 139.13 717.594 139.13C714.839 139.13 712.605 141.583 712.605 144.609C712.605 147.634 714.839 150.087 717.594 150.087ZM717.594 151C720.809 151 723.415 148.139 723.415 144.609C723.415 141.079 720.809 138.217 717.594 138.217C714.38 138.217 711.773 141.079 711.773 144.609C711.773 148.139 714.38 151 717.594 151Z" fill="#A6A6A5"/>
<path d="M686.704 144.609C686.704 148.139 684.098 151 680.883 151C677.669 151 675.062 148.139 675.062 144.609C675.062 141.079 677.669 138.217 680.883 138.217C684.098 138.217 686.704 141.079 686.704 144.609Z" fill="#101010"/>
<path fill-rule="evenodd" clip-rule="evenodd" d="M680.883 150.087C683.639 150.087 685.873 147.634 685.873 144.609C685.873 141.583 683.639 139.13 680.883 139.13C678.128 139.13 675.894 141.583 675.894 144.609C675.894 147.634 678.128 150.087 680.883 150.087ZM680.883 151C684.098 151 686.704 148.139 686.704 144.609C686.704 141.079 684.098 138.217 680.883 138.217C677.669 138.217 675.062 141.079 675.062 144.609C675.062 148.139 677.669 151 680.883 151Z" fill="#A6A6A5"/>
<path fill-rule="evenodd" clip-rule="evenodd" d="M685.213 117.218H695.656V134.565H681.328V121.543L685.213 117.218ZM685.795 118.484L682.618 122.022V133.299H694.367V118.484H685.795Z" fill="#A6A6A5"/>
<path fill-rule="evenodd" clip-rule="evenodd" d="M694.008 256.068H702.206V269.688H690.959V259.459L694.008 256.068ZM694.434 256.995L691.904 259.81V268.761H701.262V256.995H694.434Z" fill="#A6A6A5"/>
<path fill-rule="evenodd" clip-rule="evenodd" d="M709.804 236.927H682.889C682.367 236.927 681.944 237.342 681.944 237.854V291.146C681.944 291.658 682.367 292.073 682.889 292.073H709.804C710.325 292.073 710.748 291.658 710.748 291.146V237.854C710.748 237.342 710.325 236.927 709.804 236.927ZM682.889 236C681.846 236 681 236.83 681 237.854V291.146C681 292.17 681.846 293 682.889 293H709.804C710.847 293 711.692 292.17 711.692 291.146V237.854C711.692 236.83 710.847 236 709.804 236H682.889Z" fill="#A6A6A5"/>
<path fill-rule="evenodd" clip-rule="evenodd" d="M707.443 239.244H685.25C684.728 239.244 684.305 239.659 684.305 240.171V285.585C684.305 286.097 684.728 286.512 685.25 286.512H707.443C707.964 286.512 708.387 286.097 708.387 285.585V240.171C708.387 239.659 707.964 239.244 707.443 239.244ZM685.25 238.317C684.207 238.317 683.361 239.147 683.361 240.171V285.585C683.361 286.609 684.207 287.439 685.25 287.439H707.443C708.486 287.439 709.331 286.609 709.331 285.585V240.171C709.331 239.147 708.486 238.317 707.443 238.317H685.25Z" fill="#A6A6A5"/>
<path fill-rule="evenodd" clip-rule="evenodd" d="M696.582 290.683C697.104 290.683 697.527 290.268 697.527 289.756C697.527 289.244 697.104 288.829 696.582 288.829C696.061 288.829 695.638 289.244 695.638 289.756C695.638 290.268 696.061 290.683 696.582 290.683ZM696.582 291.61C697.625 291.61 698.471 290.78 698.471 289.756C698.471 288.732 697.625 287.902 696.582 287.902C695.539 287.902 694.693 288.732 694.693 289.756C694.693 290.78 695.539 291.61 696.582 291.61Z" fill="#A6A6A5"/>
<path fill-rule="evenodd" clip-rule="evenodd" d="M451.091 163.797H395.194C393.871 163.797 392.799 164.867 392.799 166.187V198.058C392.799 199.378 393.871 200.448 395.194 200.448H451.091C452.414 200.448 453.486 199.378 453.486 198.058V166.187C453.486 164.867 452.414 163.797 451.091 163.797ZM395.194 163C393.43 163 392 164.427 392 166.187V198.058C392 199.818 393.43 201.245 395.194 201.245H451.091C452.855 201.245 454.285 199.818 454.285 198.058V166.187C454.285 164.427 452.855 163 451.091 163H395.194Z" fill="#A6A6A5"/>
<path d="M406.373 163H407.172V200.847H406.373V163Z" fill="#A6A6A5"/>
<path d="M454.285 188.098V188.895L406.373 188.895V188.098L454.285 188.098Z" fill="#A6A6A5"/>
<path fill-rule="evenodd" clip-rule="evenodd" d="M393.996 169.773C393.996 169.553 394.175 169.374 394.396 169.374H404.776C404.997 169.374 405.176 169.553 405.176 169.773C405.176 169.993 404.997 170.171 404.776 170.171H394.396C394.175 170.171 393.996 169.993 393.996 169.773Z" fill="#A6A6A5"/>
<path fill-rule="evenodd" clip-rule="evenodd" d="M393.996 172.163C393.996 171.943 394.175 171.764 394.396 171.764H400.784C401.004 171.764 401.183 171.943 401.183 172.163C401.183 172.383 401.004 172.561 400.784 172.561H394.396C394.175 172.561 393.996 172.383 393.996 172.163Z" fill="#A6A6A5"/>
<path fill-rule="evenodd" clip-rule="evenodd" d="M393.996 174.553C393.996 174.333 394.175 174.155 394.396 174.155H404.776C404.997 174.155 405.176 174.333 405.176 174.553C405.176 174.773 404.997 174.952 404.776 174.952H394.396C394.175 174.952 393.996 174.773 393.996 174.553Z" fill="#A6A6A5"/>
<path fill-rule="evenodd" clip-rule="evenodd" d="M393.996 176.943C393.996 176.723 394.175 176.545 394.396 176.545H400.784C401.004 176.545 401.183 176.723 401.183 176.943C401.183 177.163 401.004 177.342 400.784 177.342H394.396C394.175 177.342 393.996 177.163 393.996 176.943Z" fill="#A6A6A5"/>
<path fill-rule="evenodd" clip-rule="evenodd" d="M393.996 179.334C393.996 179.114 394.175 178.935 394.396 178.935H404.776C404.997 178.935 405.176 179.114 405.176 179.334C405.176 179.554 404.997 179.732 404.776 179.732H394.396C394.175 179.732 393.996 179.554 393.996 179.334Z" fill="#A6A6A5"/>
<path fill-rule="evenodd" clip-rule="evenodd" d="M393.996 181.724C393.996 181.504 394.175 181.326 394.396 181.326H400.784C401.004 181.326 401.183 181.504 401.183 181.724C401.183 181.944 401.004 182.122 400.784 182.122H394.396C394.175 182.122 393.996 181.944 393.996 181.724Z" fill="#A6A6A5"/>
<path fill-rule="evenodd" clip-rule="evenodd" d="M408.37 191.285C408.37 191.065 408.548 190.887 408.769 190.887H427.933C428.154 190.887 428.333 191.065 428.333 191.285C428.333 191.505 428.154 191.684 427.933 191.684H408.769C408.548 191.684 408.37 191.505 408.37 191.285Z" fill="#A6A6A5"/>
<path fill-rule="evenodd" clip-rule="evenodd" d="M408.37 193.676C408.37 193.456 408.548 193.277 408.769 193.277H419.15C419.37 193.277 419.549 193.456 419.549 193.676C419.549 193.896 419.37 194.074 419.15 194.074H408.769C408.548 194.074 408.37 193.896 408.37 193.676Z" fill="#A6A6A5"/>
<path fill-rule="evenodd" clip-rule="evenodd" d="M408.37 196.066C408.37 195.846 408.548 195.668 408.769 195.668H419.15C419.37 195.668 419.549 195.846 419.549 196.066C419.549 196.286 419.37 196.464 419.15 196.464H408.769C408.548 196.464 408.37 196.286 408.37 196.066Z" fill="#A6A6A5"/>
<path fill-rule="evenodd" clip-rule="evenodd" d="M432.325 191.285C432.325 191.065 432.504 190.887 432.725 190.887H443.105C443.326 190.887 443.505 191.065 443.505 191.285C443.505 191.505 443.326 191.684 443.105 191.684H432.725C432.504 191.684 432.325 191.505 432.325 191.285Z" fill="#A6A6A5"/>
<path fill-rule="evenodd" clip-rule="evenodd" d="M408.37 169.773C408.37 169.553 408.548 169.374 408.769 169.374H427.933C428.154 169.374 428.333 169.553 428.333 169.773C428.333 169.993 428.154 170.171 427.933 170.171H408.769C408.548 170.171 408.37 169.993 408.37 169.773Z" fill="#A6A6A5"/>
<path fill-rule="evenodd" clip-rule="evenodd" d="M432.325 169.773C432.325 169.553 432.504 169.374 432.725 169.374H451.889C452.11 169.374 452.288 169.553 452.288 169.773C452.288 169.993 452.11 170.171 451.889 170.171H432.725C432.504 170.171 432.325 169.993 432.325 169.773Z" fill="#A6A6A5"/>
<path fill-rule="evenodd" clip-rule="evenodd" d="M432.325 193.676C432.325 193.456 432.504 193.277 432.725 193.277H439.113C439.333 193.277 439.512 193.456 439.512 193.676C439.512 193.896 439.333 194.074 439.113 194.074H432.725C432.504 194.074 432.325 193.896 432.325 193.676Z" fill="#A6A6A5"/>
<path fill-rule="evenodd" clip-rule="evenodd" d="M408.37 172.163C408.37 171.943 408.548 171.764 408.769 171.764H419.15C419.37 171.764 419.549 171.943 419.549 172.163C419.549 172.383 419.37 172.561 419.15 172.561H408.769C408.548 172.561 408.37 172.383 408.37 172.163Z" fill="#A6A6A5"/>
<path fill-rule="evenodd" clip-rule="evenodd" d="M432.325 172.163C432.325 171.943 432.504 171.764 432.725 171.764H439.113C439.333 171.764 439.512 171.943 439.512 172.163C439.512 172.383 439.333 172.561 439.113 172.561H432.725C432.504 172.561 432.325 172.383 432.325 172.163Z" fill="#A6A6A5"/>
<path fill-rule="evenodd" clip-rule="evenodd" d="M432.325 196.066C432.325 195.846 432.504 195.668 432.725 195.668H439.113C439.333 195.668 439.512 195.846 439.512 196.066C439.512 196.286 439.333 196.464 439.113 196.464H432.725C432.504 196.464 432.325 196.286 432.325 196.066Z" fill="#A6A6A5"/>
<path fill-rule="evenodd" clip-rule="evenodd" d="M408.37 174.553C408.37 174.333 408.548 174.155 408.769 174.155H419.15C419.37 174.155 419.549 174.333 419.549 174.553C419.549 174.773 419.37 174.952 419.15 174.952H408.769C408.548 174.952 408.37 174.773 408.37 174.553Z" fill="#A6A6A5"/>
<path fill-rule="evenodd" clip-rule="evenodd" d="M432.325 174.553C432.325 174.333 432.504 174.155 432.725 174.155H439.113C439.333 174.155 439.512 174.333 439.512 174.553C439.512 174.773 439.333 174.952 439.113 174.952H432.725C432.504 174.952 432.325 174.773 432.325 174.553Z" fill="#A6A6A5"/>
<path fill-rule="evenodd" clip-rule="evenodd" d="M408.37 176.943C408.37 176.723 408.548 176.545 408.769 176.545H411.963C412.184 176.545 412.362 176.723 412.362 176.943C412.362 177.163 412.184 177.342 411.963 177.342H408.769C408.548 177.342 408.37 177.163 408.37 176.943Z" fill="#A6A6A5"/>
<path fill-rule="evenodd" clip-rule="evenodd" d="M432.325 176.943C432.325 176.723 432.504 176.545 432.725 176.545H435.919C436.139 176.545 436.318 176.723 436.318 176.943C436.318 177.163 436.139 177.342 435.919 177.342H432.725C432.504 177.342 432.325 177.163 432.325 176.943Z" fill="#A6A6A5"/>
<path fill-rule="evenodd" clip-rule="evenodd" d="M685.406 10.5H696.562V24.2812H685.406V10.5ZM686.343 11.4378V23.3435H695.626V11.4378H686.343Z" fill="#A6A6A5"/>
<path fill-rule="evenodd" clip-rule="evenodd" d="M697.976 11.8125H700.272C700.398 11.8125 700.5 11.9193 700.5 12.0511C700.5 12.1829 700.398 12.2898 700.272 12.2898H698.431V15.5581H696.134C696.008 15.5581 695.906 15.4512 695.906 15.3194C695.906 15.1876 696.008 15.0808 696.134 15.0808H697.976V11.8125ZM695.906 17.0625C695.906 16.9307 696.008 16.8239 696.134 16.8239H699.031C699.157 16.8239 699.258 16.9307 699.258 17.0625C699.258 17.1943 699.157 17.3011 699.031 17.3011H696.134C696.008 17.3011 695.906 17.1943 695.906 17.0625ZM695.906 18.8056C695.906 18.6738 696.008 18.5669 696.134 18.5669H698.431V21.8352H700.272C700.398 21.8352 700.5 21.9421 700.5 22.0739C700.5 22.2057 700.398 22.3125 700.272 22.3125H697.976V19.0442H696.134C696.008 19.0442 695.906 18.9374 695.906 18.8056Z" fill="#A6A6A5"/>
<path fill-rule="evenodd" clip-rule="evenodd" d="M683.993 11.8125H681.696C681.571 11.8125 681.469 11.9193 681.469 12.0511C681.469 12.1829 681.571 12.2898 681.696 12.2898H683.538V15.5581H685.835C685.961 15.5581 686.062 15.4512 686.062 15.3194C686.062 15.1876 685.961 15.0808 685.835 15.0808H683.993V11.8125ZM686.062 17.0625C686.062 16.9307 685.961 16.8239 685.835 16.8239H682.938C682.812 16.8239 682.71 16.9307 682.71 17.0625C682.71 17.1943 682.812 17.3011 682.938 17.3011H685.835C685.961 17.3011 686.062 17.1943 686.062 17.0625ZM686.062 18.8056C686.062 18.6738 685.961 18.5669 685.835 18.5669H683.538V21.8352H681.696C681.571 21.8352 681.469 21.9421 681.469 22.0739C681.469 22.2057 681.571 22.3125 681.696 22.3125H683.993V19.0442H685.835C685.961 19.0442 686.062 18.9374 686.062 18.8056Z" fill="#A6A6A5"/>
<path fill-rule="evenodd" clip-rule="evenodd" d="M694.783 25.824L694.783 26.7087C694.783 26.8178 694.888 26.9063 695.017 26.9063C695.145 26.9063 695.25 26.8178 695.25 26.7087L695.25 25.4288L692.916 25.4288L692.916 23.8226C692.916 23.7135 692.811 23.625 692.682 23.625C692.553 23.625 692.449 23.7135 692.449 23.8226L692.449 25.824L694.783 25.824ZM690.984 23.625C691.113 23.625 691.218 23.7135 691.218 23.8226L691.218 25.2656C691.218 25.3747 691.113 25.4632 690.984 25.4632C690.855 25.4632 690.751 25.3747 690.751 25.2656L690.751 23.8226C690.751 23.7135 690.855 23.625 690.984 23.625ZM689.287 23.625C689.416 23.625 689.52 23.7135 689.52 23.8226L689.52 25.824L687.186 25.824L687.186 26.7087C687.186 26.8178 687.081 26.9063 686.952 26.9063C686.823 26.9063 686.719 26.8178 686.719 26.7087L686.719 25.4288L689.053 25.4288L689.053 23.8226C689.053 23.7135 689.158 23.625 689.287 23.625Z" fill="#A6A6A5"/>
<path fill-rule="evenodd" clip-rule="evenodd" d="M694.783 8.51751L694.783 7.45582C694.783 7.32489 694.888 7.21875 695.017 7.21875C695.145 7.21875 695.25 7.32489 695.25 7.45582L695.25 8.99166L692.916 8.99166L692.916 10.9192C692.916 11.0501 692.811 11.1562 692.682 11.1562C692.553 11.1562 692.449 11.0501 692.449 10.9192L692.449 8.51751L694.783 8.51751ZM690.984 11.1562C691.113 11.1562 691.218 11.0501 691.218 10.9192L691.218 9.1875C691.218 9.05657 691.113 8.95043 690.984 8.95043C690.855 8.95043 690.751 9.05657 690.751 9.1875L690.751 10.9192C690.751 11.0501 690.855 11.1562 690.984 11.1562ZM689.287 11.1562C689.416 11.1562 689.52 11.0501 689.52 10.9192L689.52 8.51751L687.186 8.51751L687.186 7.45582C687.186 7.32489 687.081 7.21875 686.952 7.21875C686.823 7.21875 686.719 7.32489 686.719 7.45582L686.719 8.99166L689.053 8.99166L689.053 10.9192C689.053 11.0501 689.158 11.1562 689.287 11.1562Z" fill="#A6A6A5"/>
<path fill-rule="evenodd" clip-rule="evenodd" d="M712.053 0.915296H669.916V33.866H712.053V0.915296ZM669 0V34.7812H712.969V0H669Z" fill="#A6A6A5"/>
<path fill-rule="evenodd" clip-rule="evenodd" d="M725.557 16.6082L723.226 5.25H712.035V34.7812H729.754V19.107L725.557 16.6082ZM728.821 19.6166L724.723 17.1762L724.7 17.0625H712.968V33.8726H728.821V19.6166ZM712.968 16.1538H724.513L722.461 6.15865H712.968V16.1538Z" fill="#A6A6A5"/>
<path d="M726.75 35.7656C726.75 39.2088 723.959 42 720.516 42C717.072 42 714.281 39.2088 714.281 35.7656C714.281 32.3225 717.072 29.5312 720.516 29.5312C723.959 29.5312 726.75 32.3225 726.75 35.7656Z" fill="#101010"/>
<path fill-rule="evenodd" clip-rule="evenodd" d="M720.516 41.1094C723.467 41.1094 725.859 38.7169 725.859 35.7656C725.859 32.8144 723.467 30.4219 720.516 30.4219C717.564 30.4219 715.172 32.8144 715.172 35.7656C715.172 38.7169 717.564 41.1094 720.516 41.1094ZM720.516 42C723.959 42 726.75 39.2088 726.75 35.7656C726.75 32.3225 723.959 29.5312 720.516 29.5312C717.072 29.5312 714.281 32.3225 714.281 35.7656C714.281 39.2088 717.072 42 720.516 42Z" fill="#A6A6A5"/>
<path d="M689.344 35.7656C689.344 39.2088 686.553 42 683.109 42C679.666 42 676.875 39.2088 676.875 35.7656C676.875 32.3225 679.666 29.5312 683.109 29.5312C686.553 29.5312 689.344 32.3225 689.344 35.7656Z" fill="#101010"/>
<path fill-rule="evenodd" clip-rule="evenodd" d="M683.109 41.1094C686.061 41.1094 688.453 38.7169 688.453 35.7656C688.453 32.8144 686.061 30.4219 683.109 30.4219C680.158 30.4219 677.766 32.8144 677.766 35.7656C677.766 38.7169 680.158 41.1094 683.109 41.1094ZM683.109 42C686.553 42 689.344 39.2088 689.344 35.7656C689.344 32.3225 686.553 29.5312 683.109 29.5312C679.666 29.5312 676.875 32.3225 676.875 35.7656C676.875 39.2088 679.666 42 683.109 42Z" fill="#A6A6A5"/>
<path d="M449 372L459 382L449 392V372Z" fill="#F9DF5F"/>
<path d="M646 372L656 382L646 392V372Z" fill="#F9DF5F"/>
<path d="M646.5 280.793V263.207L655.293 272L646.5 280.793Z" fill="#A6A6A5" stroke="#A6A6A5"/>
<path d="M646.5 132.793V115.207L655.293 124L646.5 132.793Z" fill="#A6A6A5" stroke="#A6A6A5"/>
<path d="M646 6L656 16L646 26V6Z" fill="#A6A6A5"/>
<path d="M416 12L426 22L416 32V12Z" fill="#A6A6A5"/>
<path d="M503.5 191.793V174.207L512.293 183L503.5 191.793Z" fill="#A6A6A5" stroke="#A6A6A5"/>
<path d="M467.5 63V107H424V145.5" stroke="#A6A6A5"/>
<path d="M417.207 138.5L434.793 138.5L426 147.293L417.207 138.5Z" fill="#A6A6A5" stroke="#A6A6A5"/>
<path d="M476.793 69.5L459.207 69.5L468 60.7071L476.793 69.5Z" fill="#A6A6A5" stroke="#A6A6A5"/>
<path d="M374.5 191.793V174.207L383.293 183L374.5 191.793Z" fill="#A6A6A5" stroke="#A6A6A5"/>
<path d="M210 105L220 115L210 125V105Z" fill="#A6A6A5"/>
<path d="M210 256L220 266L210 276V256Z" fill="#F9DF5F"/>
<path d="M34.6582 425.781L39.3066 437.383L43.9551 425.781H46.3867V440H44.5117V434.463L44.6875 428.486L40.0195 440H38.584L33.9258 428.516L34.1113 434.463V440H32.2363V425.781H34.6582ZM60.625 440H58.7402L51.582 429.043V440H49.6973V425.781H51.582L58.7598 436.787V425.781H60.625V440ZM74.8926 433.35C74.8926 434.743 74.6582 435.96 74.1895 437.002C73.7207 438.037 73.0566 438.828 72.1973 439.375C71.3379 439.922 70.3353 440.195 69.1895 440.195C68.0697 440.195 67.0768 439.922 66.2109 439.375C65.3451 438.822 64.6712 438.037 64.1895 437.021C63.7142 435.999 63.4701 434.818 63.457 433.477V432.451C63.457 431.084 63.6947 429.876 64.1699 428.828C64.6452 427.78 65.3158 426.979 66.1816 426.426C67.054 425.866 68.0501 425.586 69.1699 425.586C70.3092 425.586 71.3118 425.863 72.1777 426.416C73.0501 426.963 73.7207 427.76 74.1895 428.809C74.6582 429.85 74.8926 431.064 74.8926 432.451V433.35ZM73.0273 432.432C73.0273 430.745 72.6888 429.453 72.0117 428.555C71.3346 427.65 70.3874 427.197 69.1699 427.197C67.985 427.197 67.0508 427.65 66.3672 428.555C65.6901 429.453 65.3418 430.703 65.3223 432.305V433.35C65.3223 434.984 65.6641 436.27 66.3477 437.207C67.0378 438.138 67.985 438.604 69.1895 438.604C70.4004 438.604 71.3379 438.164 72.002 437.285C72.666 436.4 73.0078 435.133 73.0273 433.486V432.432Z" fill="#F9DF5F"/>

<svg x="281" y="107" width="10" height="20" viewBox="0 0 10 20" fill="none" xmlns="http://www.w3.org/2000/svg">
<path d="M10 20L-8.74228e-07 10L10 0L10 20Z" fill="#A6A6A5"/>
</svg>
<svg x="281" y="259" width="10" height="20" viewBox="0 0 10 20" fill="none" xmlns="http://www.w3.org/2000/svg">
<path d="M10 20L-8.74228e-07 10L10 0L10 20Z" fill="#A6A6A5"/>
</svg>
<svg x="459" y="173" width="10" height="20" viewBox="0 0 10 20" fill="none" xmlns="http://www.w3.org/2000/svg">
<path d="M10 20L-8.74228e-07 10L10 0L10 20Z" fill="#A6A6A5"/>
</svg>

<svg x="190" y="114" width="25" height="75" viewBox="0 0 25 75" fill="none" xmlns="http://www.w3.org/2000/svg">
<path d="M1 74.5V1H24.75" stroke="#A6A6A5"/>
</svg>



<!--M2M-->
<svg x="678" y="45" width="35" height="12" viewBox="0 0 35 12" fill="none" xmlns="http://www.w3.org/2000/svg">
<path d="M2.29688 0.625L6.01562 9.90625L9.73438 0.625H11.6797V12H10.1797V7.57031L10.3203 2.78906L6.58594 12H5.4375L1.71094 2.8125L1.85938 7.57031V12H0.359375V0.625H2.29688ZM21.4062 12H13.9531V10.9609L17.8906 6.58594C18.474 5.92448 18.875 5.38802 19.0938 4.97656C19.3177 4.5599 19.4297 4.13021 19.4297 3.6875C19.4297 3.09375 19.25 2.60677 18.8906 2.22656C18.5312 1.84635 18.0521 1.65625 17.4531 1.65625C16.7344 1.65625 16.1745 1.86198 15.7734 2.27344C15.3776 2.67969 15.1797 3.2474 15.1797 3.97656H13.7344C13.7344 2.92969 14.0703 2.08333 14.7422 1.4375C15.4193 0.791667 16.3229 0.46875 17.4531 0.46875C18.5104 0.46875 19.3464 0.747396 19.9609 1.30469C20.5755 1.85677 20.8828 2.59375 20.8828 3.51562C20.8828 4.63542 20.1693 5.96875 18.7422 7.51562L15.6953 10.8203H21.4062V12ZM25.25 0.625L28.9688 9.90625L32.6875 0.625H34.6328V12H33.1328V7.57031L33.2734 2.78906L29.5391 12H28.3906L24.6641 2.8125L24.8125 7.57031V12H23.3125V0.625H25.25Z" fill="#A6A6A5"/>
</svg>


<!--OTAP-->
<svg x="530" y="205" width="40" height="13" viewBox="0 0 40 13" fill="none" xmlns="http://www.w3.org/2000/svg">
<path d="M9.45312 6.67969C9.45312 7.79427 9.26562 8.76823 8.89062 9.60156C8.51562 10.4297 7.98438 11.0625 7.29688 11.5C6.60938 11.9375 5.80729 12.1562 4.89062 12.1562C3.99479 12.1562 3.20052 11.9375 2.50781 11.5C1.8151 11.0573 1.27604 10.4297 0.890625 9.61719C0.510417 8.79948 0.315104 7.85417 0.304688 6.78125V5.96094C0.304688 4.86719 0.494792 3.90104 0.875 3.0625C1.25521 2.22396 1.79167 1.58333 2.48438 1.14062C3.18229 0.692708 3.97917 0.46875 4.875 0.46875C5.78646 0.46875 6.58854 0.690104 7.28125 1.13281C7.97917 1.57031 8.51562 2.20833 8.89062 3.04688C9.26562 3.88021 9.45312 4.85156 9.45312 5.96094V6.67969ZM7.96094 5.94531C7.96094 4.59635 7.6901 3.5625 7.14844 2.84375C6.60677 2.11979 5.84896 1.75781 4.875 1.75781C3.92708 1.75781 3.17969 2.11979 2.63281 2.84375C2.09115 3.5625 1.8125 4.5625 1.79688 5.84375V6.67969C1.79688 7.98698 2.07031 9.01562 2.61719 9.76562C3.16927 10.5104 3.92708 10.8828 4.89062 10.8828C5.85938 10.8828 6.60938 10.5312 7.14062 9.82812C7.67188 9.11979 7.94531 8.10677 7.96094 6.78906V5.94531ZM19.3438 1.85938H15.6875V12H14.1953V1.85938H10.5469V0.625H19.3438V1.85938ZM26.6875 9.03125H21.9219L20.8516 12H19.3047L23.6484 0.625H24.9609L29.3125 12H27.7734L26.6875 9.03125ZM22.375 7.79688H26.2422L24.3047 2.47656L22.375 7.79688ZM32.3438 7.54688V12H30.8438V0.625H35.0391C36.2839 0.625 37.2578 0.942708 37.9609 1.57812C38.6693 2.21354 39.0234 3.05469 39.0234 4.10156C39.0234 5.20573 38.6771 6.05729 37.9844 6.65625C37.2969 7.25 36.3099 7.54688 35.0234 7.54688H32.3438ZM32.3438 6.32031H35.0391C35.8411 6.32031 36.4557 6.13281 36.8828 5.75781C37.3099 5.3776 37.5234 4.83073 37.5234 4.11719C37.5234 3.4401 37.3099 2.89844 36.8828 2.49219C36.4557 2.08594 35.8698 1.875 35.125 1.85938H32.3438V6.32031Z" fill="#A6A6A5"/>
</svg>


<!--SIM + bootstrap-->
<svg x="660" y="175" width="68" height="35" viewBox="0 0 68 35" fill="none" xmlns="http://www.w3.org/2000/svg">
<path d="M18.2344 6.92969C16.9479 6.5599 16.0104 6.10677 15.4219 5.57031C14.8385 5.02865 14.5469 4.36198 14.5469 3.57031C14.5469 2.67448 14.9036 1.9349 15.6172 1.35156C16.3359 0.763021 17.2682 0.46875 18.4141 0.46875C19.1953 0.46875 19.8906 0.619792 20.5 0.921875C21.1146 1.22396 21.5885 1.64062 21.9219 2.17188C22.2604 2.70312 22.4297 3.28385 22.4297 3.91406H20.9219C20.9219 3.22656 20.7031 2.6875 20.2656 2.29688C19.8281 1.90104 19.2109 1.70312 18.4141 1.70312C17.6745 1.70312 17.0964 1.86719 16.6797 2.19531C16.2682 2.51823 16.0625 2.96875 16.0625 3.54688C16.0625 4.01042 16.2578 4.40365 16.6484 4.72656C17.0443 5.04427 17.7135 5.33594 18.6562 5.60156C19.6042 5.86719 20.3438 6.16146 20.875 6.48438C21.4115 6.80208 21.8073 7.17448 22.0625 7.60156C22.3229 8.02865 22.4531 8.53125 22.4531 9.10938C22.4531 10.0312 22.0938 10.7708 21.375 11.3281C20.6562 11.8802 19.6953 12.1562 18.4922 12.1562C17.7109 12.1562 16.9818 12.0078 16.3047 11.7109C15.6276 11.4089 15.1042 10.9974 14.7344 10.4766C14.3698 9.95573 14.1875 9.36458 14.1875 8.70312H15.6953C15.6953 9.39062 15.9479 9.9349 16.4531 10.3359C16.9635 10.7318 17.6432 10.9297 18.4922 10.9297C19.2839 10.9297 19.8906 10.7682 20.3125 10.4453C20.7344 10.1224 20.9453 9.68229 20.9453 9.125C20.9453 8.56771 20.75 8.13802 20.3594 7.83594C19.9688 7.52865 19.2604 7.22656 18.2344 6.92969ZM25.9922 12H24.4922V0.625H25.9922V12ZM30.6797 0.625L34.3984 9.90625L38.1172 0.625H40.0625V12H38.5625V7.57031L38.7031 2.78906L34.9688 12H33.8203L30.0938 2.8125L30.2422 7.57031V12H28.7422V0.625H30.6797ZM50.5938 5.89844H53.7656V7.26562H50.5938V10.8594H49.1406V7.26562H45.9688V5.89844H49.1406V2.57812H50.5938V5.89844ZM7.875 26.8672C7.875 28.1589 7.57812 29.1979 6.98438 29.9844C6.39062 30.7656 5.59375 31.1562 4.59375 31.1562C3.52604 31.1562 2.70052 30.7786 2.11719 30.0234L2.04688 31H0.71875V19H2.16406V23.4766C2.7474 22.7526 3.55208 22.3906 4.57812 22.3906C5.60417 22.3906 6.40885 22.7786 6.99219 23.5547C7.58073 24.3307 7.875 25.3932 7.875 26.7422V26.8672ZM6.42969 26.7031C6.42969 25.7188 6.23958 24.9583 5.85938 24.4219C5.47917 23.8854 4.93229 23.6172 4.21875 23.6172C3.26562 23.6172 2.58073 24.0599 2.16406 24.9453V28.6016C2.60677 29.487 3.29688 29.9297 4.23438 29.9297C4.92708 29.9297 5.46615 29.6615 5.85156 29.125C6.23698 28.5885 6.42969 27.7812 6.42969 26.7031ZM9.32031 26.6953C9.32031 25.8672 9.48177 25.1224 9.80469 24.4609C10.1328 23.7995 10.5859 23.2891 11.1641 22.9297C11.7474 22.5703 12.4115 22.3906 13.1562 22.3906C14.3073 22.3906 15.237 22.7891 15.9453 23.5859C16.6589 24.3828 17.0156 25.4427 17.0156 26.7656V26.8672C17.0156 27.6901 16.8568 28.4297 16.5391 29.0859C16.2266 29.737 15.776 30.2448 15.1875 30.6094C14.6042 30.974 13.9323 31.1562 13.1719 31.1562C12.026 31.1562 11.0964 30.7578 10.3828 29.9609C9.67448 29.1641 9.32031 28.1094 9.32031 26.7969V26.6953ZM10.7734 26.8672C10.7734 27.8047 10.9896 28.5573 11.4219 29.125C11.8594 29.6927 12.4427 29.9766 13.1719 29.9766C13.9062 29.9766 14.4896 29.6901 14.9219 29.1172C15.3542 28.5391 15.5703 27.7318 15.5703 26.6953C15.5703 25.7682 15.349 25.0182 14.9062 24.4453C14.4688 23.8672 13.8854 23.5781 13.1562 23.5781C12.4427 23.5781 11.8672 23.862 11.4297 24.4297C10.9922 24.9974 10.7734 25.8099 10.7734 26.8672ZM18.4453 26.6953C18.4453 25.8672 18.6068 25.1224 18.9297 24.4609C19.2578 23.7995 19.7109 23.2891 20.2891 22.9297C20.8724 22.5703 21.5365 22.3906 22.2812 22.3906C23.4323 22.3906 24.362 22.7891 25.0703 23.5859C25.7839 24.3828 26.1406 25.4427 26.1406 26.7656V26.8672C26.1406 27.6901 25.9818 28.4297 25.6641 29.0859C25.3516 29.737 24.901 30.2448 24.3125 30.6094C23.7292 30.974 23.0573 31.1562 22.2969 31.1562C21.151 31.1562 20.2214 30.7578 19.5078 29.9609C18.7995 29.1641 18.4453 28.1094 18.4453 26.7969V26.6953ZM19.8984 26.8672C19.8984 27.8047 20.1146 28.5573 20.5469 29.125C20.9844 29.6927 21.5677 29.9766 22.2969 29.9766C23.0312 29.9766 23.6146 29.6901 24.0469 29.1172C24.4792 28.5391 24.6953 27.7318 24.6953 26.6953C24.6953 25.7682 24.474 25.0182 24.0312 24.4453C23.5938 23.8672 23.0104 23.5781 22.2812 23.5781C21.5677 23.5781 20.9922 23.862 20.5547 24.4297C20.1172 24.9974 19.8984 25.8099 19.8984 26.8672ZM29.9141 20.5V22.5469H31.4922V23.6641H29.9141V28.9062C29.9141 29.2448 29.9844 29.5 30.125 29.6719C30.2656 29.8385 30.5052 29.9219 30.8438 29.9219C31.0104 29.9219 31.2396 29.8906 31.5312 29.8281V31C31.151 31.1042 30.7812 31.1562 30.4219 31.1562C29.776 31.1562 29.2891 30.9609 28.9609 30.5703C28.6328 30.1797 28.4688 29.625 28.4688 28.9062V23.6641H26.9297V22.5469H28.4688V20.5H29.9141ZM38.1094 28.7578C38.1094 28.3672 37.9609 28.0651 37.6641 27.8516C37.3724 27.6328 36.8594 27.4453 36.125 27.2891C35.3958 27.1328 34.8151 26.9453 34.3828 26.7266C33.9557 26.5078 33.638 26.2474 33.4297 25.9453C33.2266 25.6432 33.125 25.2839 33.125 24.8672C33.125 24.1745 33.4167 23.5885 34 23.1094C34.5885 22.6302 35.3385 22.3906 36.25 22.3906C37.2083 22.3906 37.9844 22.638 38.5781 23.1328C39.1771 23.6276 39.4766 24.2604 39.4766 25.0312H38.0234C38.0234 24.6354 37.8542 24.2943 37.5156 24.0078C37.1823 23.7214 36.7604 23.5781 36.25 23.5781C35.724 23.5781 35.3125 23.6927 35.0156 23.9219C34.7188 24.151 34.5703 24.4505 34.5703 24.8203C34.5703 25.1693 34.7083 25.4323 34.9844 25.6094C35.2604 25.7865 35.7578 25.9557 36.4766 26.1172C37.2005 26.2786 37.7865 26.4714 38.2344 26.6953C38.6823 26.9193 39.013 27.1901 39.2266 27.5078C39.4453 27.8203 39.5547 28.2031 39.5547 28.6562C39.5547 29.4115 39.2526 30.0182 38.6484 30.4766C38.0443 30.9297 37.2604 31.1562 36.2969 31.1562C35.6198 31.1562 35.0208 31.0365 34.5 30.7969C33.9792 30.5573 33.5703 30.224 33.2734 29.7969C32.9818 29.3646 32.8359 28.8984 32.8359 28.3984H34.2812C34.3073 28.8828 34.5 29.2682 34.8594 29.5547C35.224 29.8359 35.7031 29.9766 36.2969 29.9766C36.8438 29.9766 37.2812 29.8672 37.6094 29.6484C37.9427 29.4245 38.1094 29.1276 38.1094 28.7578ZM43.3984 20.5V22.5469H44.9766V23.6641H43.3984V28.9062C43.3984 29.2448 43.4688 29.5 43.6094 29.6719C43.75 29.8385 43.9896 29.9219 44.3281 29.9219C44.4948 29.9219 44.724 29.8906 45.0156 29.8281V31C44.6354 31.1042 44.2656 31.1562 43.9062 31.1562C43.2604 31.1562 42.7734 30.9609 42.4453 30.5703C42.1172 30.1797 41.9531 29.625 41.9531 28.9062V23.6641H40.4141V22.5469H41.9531V20.5H43.3984ZM50.7578 23.8438C50.5391 23.8073 50.3021 23.7891 50.0469 23.7891C49.099 23.7891 48.4557 24.1927 48.1172 25V31H46.6719V22.5469H48.0781L48.1016 23.5234C48.5755 22.7682 49.2474 22.3906 50.1172 22.3906C50.3984 22.3906 50.612 22.4271 50.7578 22.5V23.8438ZM57 31C56.9167 30.8333 56.849 30.5365 56.7969 30.1094C56.125 30.8073 55.3229 31.1562 54.3906 31.1562C53.5573 31.1562 52.8724 30.9219 52.3359 30.4531C51.8047 29.9792 51.5391 29.3802 51.5391 28.6562C51.5391 27.776 51.8724 27.0938 52.5391 26.6094C53.2109 26.1198 54.1536 25.875 55.3672 25.875H56.7734V25.2109C56.7734 24.7057 56.6224 24.3047 56.3203 24.0078C56.0182 23.7057 55.5729 23.5547 54.9844 23.5547C54.4688 23.5547 54.0365 23.6849 53.6875 23.9453C53.3385 24.2057 53.1641 24.5208 53.1641 24.8906H51.7109C51.7109 24.4688 51.8594 24.0625 52.1562 23.6719C52.4583 23.276 52.8646 22.9635 53.375 22.7344C53.8906 22.5052 54.4557 22.3906 55.0703 22.3906C56.0443 22.3906 56.8073 22.6354 57.3594 23.125C57.9115 23.6094 58.1979 24.2786 58.2188 25.1328V29.0234C58.2188 29.7995 58.3177 30.4167 58.5156 30.875V31H57ZM54.6016 29.8984C55.0547 29.8984 55.4844 29.7812 55.8906 29.5469C56.2969 29.3125 56.5911 29.0078 56.7734 28.6328V26.8984H55.6406C53.8698 26.8984 52.9844 27.4167 52.9844 28.4531C52.9844 28.9062 53.1354 29.2604 53.4375 29.5156C53.7396 29.7708 54.1276 29.8984 54.6016 29.8984ZM67.625 26.8672C67.625 28.1536 67.3307 29.1901 66.7422 29.9766C66.1536 30.763 65.3568 31.1562 64.3516 31.1562C63.3255 31.1562 62.5182 30.8307 61.9297 30.1797V34.25H60.4844V22.5469H61.8047L61.875 23.4844C62.4635 22.7552 63.2812 22.3906 64.3281 22.3906C65.3438 22.3906 66.1458 22.7734 66.7344 23.5391C67.3281 24.3047 67.625 25.3698 67.625 26.7344V26.8672ZM66.1797 26.7031C66.1797 25.75 65.9766 24.9974 65.5703 24.4453C65.1641 23.8932 64.6068 23.6172 63.8984 23.6172C63.0234 23.6172 62.3672 24.0052 61.9297 24.7812V28.8203C62.362 29.5911 63.0234 29.9766 63.9141 29.9766C64.6068 29.9766 65.1562 29.7031 65.5625 29.1562C65.974 28.6042 66.1797 27.7865 66.1797 26.7031Z" fill="#A6A6A5"/>
</svg>

<!--SM-DP-->
<svg x="230" y="150" width="49" height="13" viewBox="0 0 49 13" fill="none" xmlns="http://www.w3.org/2000/svg">
<path d="M4.92969 6.92969C3.64323 6.5599 2.70573 6.10677 2.11719 5.57031C1.53385 5.02865 1.24219 4.36198 1.24219 3.57031C1.24219 2.67448 1.59896 1.9349 2.3125 1.35156C3.03125 0.763021 3.96354 0.46875 5.10938 0.46875C5.89062 0.46875 6.58594 0.619792 7.19531 0.921875C7.8099 1.22396 8.28385 1.64062 8.61719 2.17188C8.95573 2.70312 9.125 3.28385 9.125 3.91406H7.61719C7.61719 3.22656 7.39844 2.6875 6.96094 2.29688C6.52344 1.90104 5.90625 1.70312 5.10938 1.70312C4.36979 1.70312 3.79167 1.86719 3.375 2.19531C2.96354 2.51823 2.75781 2.96875 2.75781 3.54688C2.75781 4.01042 2.95312 4.40365 3.34375 4.72656C3.73958 5.04427 4.40885 5.33594 5.35156 5.60156C6.29948 5.86719 7.03906 6.16146 7.57031 6.48438C8.10677 6.80208 8.5026 7.17448 8.75781 7.60156C9.01823 8.02865 9.14844 8.53125 9.14844 9.10938C9.14844 10.0312 8.78906 10.7708 8.07031 11.3281C7.35156 11.8802 6.39062 12.1562 5.1875 12.1562C4.40625 12.1562 3.67708 12.0078 3 11.7109C2.32292 11.4089 1.79948 10.9974 1.42969 10.4766C1.0651 9.95573 0.882812 9.36458 0.882812 8.70312H2.39062C2.39062 9.39062 2.64323 9.9349 3.14844 10.3359C3.65885 10.7318 4.33854 10.9297 5.1875 10.9297C5.97917 10.9297 6.58594 10.7682 7.00781 10.4453C7.42969 10.1224 7.64062 9.68229 7.64062 9.125C7.64062 8.56771 7.44531 8.13802 7.05469 7.83594C6.66406 7.52865 5.95573 7.22656 4.92969 6.92969ZM13.0156 0.625L16.7344 9.90625L20.4531 0.625H22.3984V12H20.8984V7.57031L21.0391 2.78906L17.3047 12H16.1562L12.4297 2.8125L12.5781 7.57031V12H11.0781V0.625H13.0156ZM27.8281 7.75781H24.0156V6.57812H27.8281V7.75781ZM29.4688 12V0.625H32.6797C33.6693 0.625 34.5443 0.84375 35.3047 1.28125C36.0651 1.71875 36.651 2.34115 37.0625 3.14844C37.4792 3.95573 37.6901 4.88281 37.6953 5.92969V6.65625C37.6953 7.72917 37.487 8.66927 37.0703 9.47656C36.6589 10.2839 36.0677 10.9036 35.2969 11.3359C34.5312 11.7682 33.638 11.9896 32.6172 12H29.4688ZM30.9688 1.85938V10.7734H32.5469C33.7031 10.7734 34.6016 10.4141 35.2422 9.69531C35.888 8.97656 36.2109 7.95312 36.2109 6.625V5.96094C36.2109 4.66927 35.9062 3.66667 35.2969 2.95312C34.6927 2.23438 33.8333 1.86979 32.7188 1.85938H30.9688ZM41.4688 7.54688V12H39.9688V0.625H44.1641C45.4089 0.625 46.3828 0.942708 47.0859 1.57812C47.7943 2.21354 48.1484 3.05469 48.1484 4.10156C48.1484 5.20573 47.8021 6.05729 47.1094 6.65625C46.4219 7.25 45.4349 7.54688 44.1484 7.54688H41.4688ZM41.4688 6.32031H44.1641C44.9661 6.32031 45.5807 6.13281 46.0078 5.75781C46.4349 5.3776 46.6484 4.83073 46.6484 4.11719C46.6484 3.4401 46.4349 2.89844 46.0078 2.49219C45.5807 2.08594 44.9948 1.875 44.25 1.85938H41.4688V6.32031Z" fill="#A6A6A5"/>
</svg>

<!--SM-SR-->
<svg x="445" y="45" width="47" height="13" viewBox="0 0 47 13" fill="none" xmlns="http://www.w3.org/2000/svg">
<path d="M4.04688 6.92969C2.76042 6.5599 1.82292 6.10677 1.23438 5.57031C0.651042 5.02865 0.359375 4.36198 0.359375 3.57031C0.359375 2.67448 0.716146 1.9349 1.42969 1.35156C2.14844 0.763021 3.08073 0.46875 4.22656 0.46875C5.00781 0.46875 5.70312 0.619792 6.3125 0.921875C6.92708 1.22396 7.40104 1.64062 7.73438 2.17188C8.07292 2.70312 8.24219 3.28385 8.24219 3.91406H6.73438C6.73438 3.22656 6.51562 2.6875 6.07812 2.29688C5.64062 1.90104 5.02344 1.70312 4.22656 1.70312C3.48698 1.70312 2.90885 1.86719 2.49219 2.19531C2.08073 2.51823 1.875 2.96875 1.875 3.54688C1.875 4.01042 2.07031 4.40365 2.46094 4.72656C2.85677 5.04427 3.52604 5.33594 4.46875 5.60156C5.41667 5.86719 6.15625 6.16146 6.6875 6.48438C7.22396 6.80208 7.61979 7.17448 7.875 7.60156C8.13542 8.02865 8.26562 8.53125 8.26562 9.10938C8.26562 10.0312 7.90625 10.7708 7.1875 11.3281C6.46875 11.8802 5.50781 12.1562 4.30469 12.1562C3.52344 12.1562 2.79427 12.0078 2.11719 11.7109C1.4401 11.4089 0.916667 10.9974 0.546875 10.4766C0.182292 9.95573 0 9.36458 0 8.70312H1.50781C1.50781 9.39062 1.76042 9.9349 2.26562 10.3359C2.77604 10.7318 3.45573 10.9297 4.30469 10.9297C5.09635 10.9297 5.70312 10.7682 6.125 10.4453C6.54688 10.1224 6.75781 9.68229 6.75781 9.125C6.75781 8.56771 6.5625 8.13802 6.17188 7.83594C5.78125 7.52865 5.07292 7.22656 4.04688 6.92969ZM12.1328 0.625L15.8516 9.90625L19.5703 0.625H21.5156V12H20.0156V7.57031L20.1562 2.78906L16.4219 12H15.2734L11.5469 2.8125L11.6953 7.57031V12H10.1953V0.625H12.1328ZM26.9453 7.75781H23.1328V6.57812H26.9453V7.75781ZM31.9375 6.92969C30.651 6.5599 29.7135 6.10677 29.125 5.57031C28.5417 5.02865 28.25 4.36198 28.25 3.57031C28.25 2.67448 28.6068 1.9349 29.3203 1.35156C30.0391 0.763021 30.9714 0.46875 32.1172 0.46875C32.8984 0.46875 33.5938 0.619792 34.2031 0.921875C34.8177 1.22396 35.2917 1.64062 35.625 2.17188C35.9635 2.70312 36.1328 3.28385 36.1328 3.91406H34.625C34.625 3.22656 34.4062 2.6875 33.9688 2.29688C33.5312 1.90104 32.9141 1.70312 32.1172 1.70312C31.3776 1.70312 30.7995 1.86719 30.3828 2.19531C29.9714 2.51823 29.7656 2.96875 29.7656 3.54688C29.7656 4.01042 29.9609 4.40365 30.3516 4.72656C30.7474 5.04427 31.4167 5.33594 32.3594 5.60156C33.3073 5.86719 34.0469 6.16146 34.5781 6.48438C35.1146 6.80208 35.5104 7.17448 35.7656 7.60156C36.026 8.02865 36.1562 8.53125 36.1562 9.10938C36.1562 10.0312 35.7969 10.7708 35.0781 11.3281C34.3594 11.8802 33.3984 12.1562 32.1953 12.1562C31.4141 12.1562 30.6849 12.0078 30.0078 11.7109C29.3307 11.4089 28.8073 10.9974 28.4375 10.4766C28.0729 9.95573 27.8906 9.36458 27.8906 8.70312H29.3984C29.3984 9.39062 29.651 9.9349 30.1562 10.3359C30.6667 10.7318 31.3464 10.9297 32.1953 10.9297C32.987 10.9297 33.5938 10.7682 34.0156 10.4453C34.4375 10.1224 34.6484 9.68229 34.6484 9.125C34.6484 8.56771 34.4531 8.13802 34.0625 7.83594C33.6719 7.52865 32.9635 7.22656 31.9375 6.92969ZM42.2578 7.39844H39.5859V12H38.0781V0.625H41.8438C43.125 0.625 44.1094 0.916667 44.7969 1.5C45.4896 2.08333 45.8359 2.93229 45.8359 4.04688C45.8359 4.75521 45.6432 5.3724 45.2578 5.89844C44.8776 6.42448 44.3464 6.81771 43.6641 7.07812L46.3359 11.9062V12H44.7266L42.2578 7.39844ZM39.5859 6.17188H41.8906C42.6354 6.17188 43.2266 5.97917 43.6641 5.59375C44.1068 5.20833 44.3281 4.69271 44.3281 4.04688C44.3281 3.34375 44.1172 2.80469 43.6953 2.42969C43.2786 2.05469 42.6745 1.86458 41.8828 1.85938H39.5859V6.17188Z" fill="#A6A6A5"/>
</svg>
<!--System core-->
<svg x="381" y="205" width="89" height="16" viewBox="0 0 89 16" fill="none" xmlns="http://www.w3.org/2000/svg">
<path d="M5.02344 6.92969C3.73698 6.5599 2.79948 6.10677 2.21094 5.57031C1.6276 5.02865 1.33594 4.36198 1.33594 3.57031C1.33594 2.67448 1.69271 1.9349 2.40625 1.35156C3.125 0.763021 4.05729 0.46875 5.20312 0.46875C5.98438 0.46875 6.67969 0.619792 7.28906 0.921875C7.90365 1.22396 8.3776 1.64062 8.71094 2.17188C9.04948 2.70312 9.21875 3.28385 9.21875 3.91406H7.71094C7.71094 3.22656 7.49219 2.6875 7.05469 2.29688C6.61719 1.90104 6 1.70312 5.20312 1.70312C4.46354 1.70312 3.88542 1.86719 3.46875 2.19531C3.05729 2.51823 2.85156 2.96875 2.85156 3.54688C2.85156 4.01042 3.04688 4.40365 3.4375 4.72656C3.83333 5.04427 4.5026 5.33594 5.44531 5.60156C6.39323 5.86719 7.13281 6.16146 7.66406 6.48438C8.20052 6.80208 8.59635 7.17448 8.85156 7.60156C9.11198 8.02865 9.24219 8.53125 9.24219 9.10938C9.24219 10.0312 8.88281 10.7708 8.16406 11.3281C7.44531 11.8802 6.48438 12.1562 5.28125 12.1562C4.5 12.1562 3.77083 12.0078 3.09375 11.7109C2.41667 11.4089 1.89323 10.9974 1.52344 10.4766C1.15885 9.95573 0.976562 9.36458 0.976562 8.70312H2.48438C2.48438 9.39062 2.73698 9.9349 3.24219 10.3359C3.7526 10.7318 4.43229 10.9297 5.28125 10.9297C6.07292 10.9297 6.67969 10.7682 7.10156 10.4453C7.52344 10.1224 7.73438 9.68229 7.73438 9.125C7.73438 8.56771 7.53906 8.13802 7.14844 7.83594C6.75781 7.52865 6.04948 7.22656 5.02344 6.92969ZM13.7109 9.88281L15.6797 3.54688H17.2266L13.8281 13.3047C13.3021 14.7109 12.4661 15.4141 11.3203 15.4141L11.0469 15.3906L10.5078 15.2891V14.1172L10.8984 14.1484C11.388 14.1484 11.7682 14.0495 12.0391 13.8516C12.3151 13.6536 12.5417 13.2917 12.7188 12.7656L13.0391 11.9062L10.0234 3.54688H11.6016L13.7109 9.88281ZM23.4453 9.75781C23.4453 9.36719 23.2969 9.0651 23 8.85156C22.7083 8.63281 22.1953 8.44531 21.4609 8.28906C20.7318 8.13281 20.151 7.94531 19.7188 7.72656C19.2917 7.50781 18.974 7.2474 18.7656 6.94531C18.5625 6.64323 18.4609 6.28385 18.4609 5.86719C18.4609 5.17448 18.7526 4.58854 19.3359 4.10938C19.9245 3.63021 20.6745 3.39062 21.5859 3.39062C22.5443 3.39062 23.3203 3.63802 23.9141 4.13281C24.513 4.6276 24.8125 5.26042 24.8125 6.03125H23.3594C23.3594 5.63542 23.1901 5.29427 22.8516 5.00781C22.5182 4.72135 22.0964 4.57812 21.5859 4.57812C21.0599 4.57812 20.6484 4.69271 20.3516 4.92188C20.0547 5.15104 19.9062 5.45052 19.9062 5.82031C19.9062 6.16927 20.0443 6.43229 20.3203 6.60938C20.5964 6.78646 21.0938 6.95573 21.8125 7.11719C22.5365 7.27865 23.1224 7.47135 23.5703 7.69531C24.0182 7.91927 24.349 8.1901 24.5625 8.50781C24.7812 8.82031 24.8906 9.20312 24.8906 9.65625C24.8906 10.4115 24.5885 11.0182 23.9844 11.4766C23.3802 11.9297 22.5964 12.1562 21.6328 12.1562C20.9557 12.1562 20.3568 12.0365 19.8359 11.7969C19.3151 11.5573 18.9062 11.224 18.6094 10.7969C18.3177 10.3646 18.1719 9.89844 18.1719 9.39844H19.6172C19.6432 9.88281 19.8359 10.2682 20.1953 10.5547C20.5599 10.8359 21.0391 10.9766 21.6328 10.9766C22.1797 10.9766 22.6172 10.8672 22.9453 10.6484C23.2786 10.4245 23.4453 10.1276 23.4453 9.75781ZM28.7344 1.5V3.54688H30.3125V4.66406H28.7344V9.90625C28.7344 10.2448 28.8047 10.5 28.9453 10.6719C29.0859 10.8385 29.3255 10.9219 29.6641 10.9219C29.8307 10.9219 30.0599 10.8906 30.3516 10.8281V12C29.9714 12.1042 29.6016 12.1562 29.2422 12.1562C28.5964 12.1562 28.1094 11.9609 27.7812 11.5703C27.4531 11.1797 27.2891 10.625 27.2891 9.90625V4.66406H25.75V3.54688H27.2891V1.5H28.7344ZM35.5156 12.1562C34.3698 12.1562 33.4375 11.7812 32.7188 11.0312C32 10.276 31.6406 9.26823 31.6406 8.00781V7.74219C31.6406 6.90365 31.7995 6.15625 32.1172 5.5C32.4401 4.83854 32.888 4.32292 33.4609 3.95312C34.0391 3.57812 34.6641 3.39062 35.3359 3.39062C36.4349 3.39062 37.2891 3.7526 37.8984 4.47656C38.5078 5.20052 38.8125 6.23698 38.8125 7.58594V8.1875H33.0859C33.1068 9.02083 33.349 9.69531 33.8125 10.2109C34.2812 10.7214 34.875 10.9766 35.5938 10.9766C36.1042 10.9766 36.5365 10.8724 36.8906 10.6641C37.2448 10.4557 37.5547 10.1797 37.8203 9.83594L38.7031 10.5234C37.9948 11.612 36.9323 12.1562 35.5156 12.1562ZM35.3359 4.57812C34.7526 4.57812 34.263 4.79167 33.8672 5.21875C33.4714 5.64062 33.2266 6.23438 33.1328 7H37.3672V6.89062C37.3255 6.15625 37.1276 5.58854 36.7734 5.1875C36.4193 4.78125 35.9401 4.57812 35.3359 4.57812ZM41.8516 3.54688L41.8906 4.48438C42.5104 3.75521 43.3464 3.39062 44.3984 3.39062C45.5807 3.39062 46.3854 3.84375 46.8125 4.75C47.0938 4.34375 47.4583 4.01562 47.9062 3.76562C48.3594 3.51562 48.8932 3.39062 49.5078 3.39062C51.362 3.39062 52.3047 4.3724 52.3359 6.33594V12H50.8906V6.42188C50.8906 5.81771 50.7526 5.36719 50.4766 5.07031C50.2005 4.76823 49.737 4.61719 49.0859 4.61719C48.5495 4.61719 48.1042 4.77865 47.75 5.10156C47.3958 5.41927 47.1901 5.84896 47.1328 6.39062V12H45.6797V6.46094C45.6797 5.23177 45.0781 4.61719 43.875 4.61719C42.9271 4.61719 42.2786 5.02083 41.9297 5.82812V12H40.4844V3.54688H41.8516ZM61.8828 10.9766C62.3984 10.9766 62.849 10.8203 63.2344 10.5078C63.6198 10.1953 63.8333 9.80469 63.875 9.33594H65.2422C65.2161 9.82031 65.0495 10.2812 64.7422 10.7188C64.4349 11.1562 64.0234 11.5052 63.5078 11.7656C62.9974 12.026 62.4557 12.1562 61.8828 12.1562C60.7318 12.1562 59.8151 11.7734 59.1328 11.0078C58.4557 10.237 58.1172 9.1849 58.1172 7.85156V7.60938C58.1172 6.78646 58.2682 6.05469 58.5703 5.41406C58.8724 4.77344 59.3047 4.27604 59.8672 3.92188C60.4349 3.56771 61.1042 3.39062 61.875 3.39062C62.8229 3.39062 63.6094 3.67448 64.2344 4.24219C64.8646 4.8099 65.2005 5.54688 65.2422 6.45312H63.875C63.8333 5.90625 63.625 5.45833 63.25 5.10938C62.8802 4.75521 62.4219 4.57812 61.875 4.57812C61.1406 4.57812 60.5703 4.84375 60.1641 5.375C59.763 5.90104 59.5625 6.66406 59.5625 7.66406V7.9375C59.5625 8.91146 59.763 9.66146 60.1641 10.1875C60.5651 10.7135 61.138 10.9766 61.8828 10.9766ZM66.4844 7.69531C66.4844 6.86719 66.6458 6.1224 66.9688 5.46094C67.2969 4.79948 67.75 4.28906 68.3281 3.92969C68.9115 3.57031 69.5755 3.39062 70.3203 3.39062C71.4714 3.39062 72.401 3.78906 73.1094 4.58594C73.8229 5.38281 74.1797 6.44271 74.1797 7.76562V7.86719C74.1797 8.6901 74.0208 9.42969 73.7031 10.0859C73.3906 10.737 72.9401 11.2448 72.3516 11.6094C71.7682 11.974 71.0964 12.1562 70.3359 12.1562C69.1901 12.1562 68.2604 11.7578 67.5469 10.9609C66.8385 10.1641 66.4844 9.10938 66.4844 7.79688V7.69531ZM67.9375 7.86719C67.9375 8.80469 68.1536 9.55729 68.5859 10.125C69.0234 10.6927 69.6068 10.9766 70.3359 10.9766C71.0703 10.9766 71.6536 10.6901 72.0859 10.1172C72.5182 9.53906 72.7344 8.73177 72.7344 7.69531C72.7344 6.76823 72.513 6.01823 72.0703 5.44531C71.6328 4.86719 71.0495 4.57812 70.3203 4.57812C69.6068 4.57812 69.0312 4.86198 68.5938 5.42969C68.1562 5.9974 67.9375 6.8099 67.9375 7.86719ZM80.0781 4.84375C79.8594 4.80729 79.6224 4.78906 79.3672 4.78906C78.4193 4.78906 77.776 5.19271 77.4375 6V12H75.9922V3.54688H77.3984L77.4219 4.52344C77.8958 3.76823 78.5677 3.39062 79.4375 3.39062C79.7188 3.39062 79.9323 3.42708 80.0781 3.5V4.84375ZM84.7656 12.1562C83.6198 12.1562 82.6875 11.7812 81.9688 11.0312C81.25 10.276 80.8906 9.26823 80.8906 8.00781V7.74219C80.8906 6.90365 81.0495 6.15625 81.3672 5.5C81.6901 4.83854 82.138 4.32292 82.7109 3.95312C83.2891 3.57812 83.9141 3.39062 84.5859 3.39062C85.6849 3.39062 86.5391 3.7526 87.1484 4.47656C87.7578 5.20052 88.0625 6.23698 88.0625 7.58594V8.1875H82.3359C82.3568 9.02083 82.599 9.69531 83.0625 10.2109C83.5312 10.7214 84.125 10.9766 84.8438 10.9766C85.3542 10.9766 85.7865 10.8724 86.1406 10.6641C86.4948 10.4557 86.8047 10.1797 87.0703 9.83594L87.9531 10.5234C87.2448 11.612 86.1823 12.1562 84.7656 12.1562ZM84.5859 4.57812C84.0026 4.57812 83.513 4.79167 83.1172 5.21875C82.7214 5.64062 82.4766 6.23438 82.3828 7H86.6172V6.89062C86.5755 6.15625 86.3776 5.58854 86.0234 5.1875C85.6693 4.78125 85.1901 4.57812 84.5859 4.57812Z" fill="#A6A6A5"/>
</svg>

<!--Custumer-->
<svg x="660" y="410" width="70" height="13" viewBox="0 0 70 13" fill="none" xmlns="http://www.w3.org/2000/svg">
<path d="M9.28906 8.39062C9.14844 9.59375 8.70312 10.5234 7.95312 11.1797C7.20833 11.8307 6.21615 12.1562 4.97656 12.1562C3.63281 12.1562 2.55469 11.6745 1.74219 10.7109C0.934896 9.7474 0.53125 8.45833 0.53125 6.84375V5.75C0.53125 4.69271 0.71875 3.76302 1.09375 2.96094C1.47396 2.15885 2.01042 1.54427 2.70312 1.11719C3.39583 0.684896 4.19792 0.46875 5.10938 0.46875C6.31771 0.46875 7.28646 0.807292 8.01562 1.48438C8.74479 2.15625 9.16927 3.08854 9.28906 4.28125H7.78125C7.65104 3.375 7.36719 2.71875 6.92969 2.3125C6.4974 1.90625 5.89062 1.70312 5.10938 1.70312C4.15104 1.70312 3.39844 2.05729 2.85156 2.76562C2.3099 3.47396 2.03906 4.48177 2.03906 5.78906V6.89062C2.03906 8.125 2.29688 9.10677 2.8125 9.83594C3.32812 10.5651 4.04948 10.9297 4.97656 10.9297C5.8099 10.9297 6.44792 10.7422 6.89062 10.3672C7.33854 9.98698 7.63542 9.32812 7.78125 8.39062H9.28906ZM10.7344 7.69531C10.7344 6.86719 10.8958 6.1224 11.2188 5.46094C11.5469 4.79948 12 4.28906 12.5781 3.92969C13.1615 3.57031 13.8255 3.39062 14.5703 3.39062C15.7214 3.39062 16.651 3.78906 17.3594 4.58594C18.0729 5.38281 18.4297 6.44271 18.4297 7.76562V7.86719C18.4297 8.6901 18.2708 9.42969 17.9531 10.0859C17.6406 10.737 17.1901 11.2448 16.6016 11.6094C16.0182 11.974 15.3464 12.1562 14.5859 12.1562C13.4401 12.1562 12.5104 11.7578 11.7969 10.9609C11.0885 10.1641 10.7344 9.10938 10.7344 7.79688V7.69531ZM12.1875 7.86719C12.1875 8.80469 12.4036 9.55729 12.8359 10.125C13.2734 10.6927 13.8568 10.9766 14.5859 10.9766C15.3203 10.9766 15.9036 10.6901 16.3359 10.1172C16.7682 9.53906 16.9844 8.73177 16.9844 7.69531C16.9844 6.76823 16.763 6.01823 16.3203 5.44531C15.8828 4.86719 15.2995 4.57812 14.5703 4.57812C13.8568 4.57812 13.2812 4.86198 12.8438 5.42969C12.4062 5.9974 12.1875 6.8099 12.1875 7.86719ZM25.1641 9.75781C25.1641 9.36719 25.0156 9.0651 24.7188 8.85156C24.4271 8.63281 23.9141 8.44531 23.1797 8.28906C22.4505 8.13281 21.8698 7.94531 21.4375 7.72656C21.0104 7.50781 20.6927 7.2474 20.4844 6.94531C20.2812 6.64323 20.1797 6.28385 20.1797 5.86719C20.1797 5.17448 20.4714 4.58854 21.0547 4.10938C21.6432 3.63021 22.3932 3.39062 23.3047 3.39062C24.263 3.39062 25.0391 3.63802 25.6328 4.13281C26.2318 4.6276 26.5312 5.26042 26.5312 6.03125H25.0781C25.0781 5.63542 24.9089 5.29427 24.5703 5.00781C24.237 4.72135 23.8151 4.57812 23.3047 4.57812C22.7786 4.57812 22.3672 4.69271 22.0703 4.92188C21.7734 5.15104 21.625 5.45052 21.625 5.82031C21.625 6.16927 21.763 6.43229 22.0391 6.60938C22.3151 6.78646 22.8125 6.95573 23.5312 7.11719C24.2552 7.27865 24.8411 7.47135 25.2891 7.69531C25.737 7.91927 26.0677 8.1901 26.2812 8.50781C26.5 8.82031 26.6094 9.20312 26.6094 9.65625C26.6094 10.4115 26.3073 11.0182 25.7031 11.4766C25.099 11.9297 24.3151 12.1562 23.3516 12.1562C22.6745 12.1562 22.0755 12.0365 21.5547 11.7969C21.0339 11.5573 20.625 11.224 20.3281 10.7969C20.0365 10.3646 19.8906 9.89844 19.8906 9.39844H21.3359C21.362 9.88281 21.5547 10.2682 21.9141 10.5547C22.2786 10.8359 22.7578 10.9766 23.3516 10.9766C23.8984 10.9766 24.3359 10.8672 24.6641 10.6484C24.9974 10.4245 25.1641 10.1276 25.1641 9.75781ZM30.4531 1.5V3.54688H32.0312V4.66406H30.4531V9.90625C30.4531 10.2448 30.5234 10.5 30.6641 10.6719C30.8047 10.8385 31.0443 10.9219 31.3828 10.9219C31.5495 10.9219 31.7786 10.8906 32.0703 10.8281V12C31.6901 12.1042 31.3203 12.1562 30.9609 12.1562C30.3151 12.1562 29.8281 11.9609 29.5 11.5703C29.1719 11.1797 29.0078 10.625 29.0078 9.90625V4.66406H27.4688V3.54688H29.0078V1.5H30.4531ZM38.9453 11.1641C38.3828 11.8255 37.5573 12.1562 36.4688 12.1562C35.5677 12.1562 34.8802 11.8958 34.4062 11.375C33.9375 10.849 33.7005 10.0729 33.6953 9.04688V3.54688H35.1406V9.00781C35.1406 10.2891 35.6615 10.9297 36.7031 10.9297C37.8073 10.9297 38.5417 10.5182 38.9062 9.69531V3.54688H40.3516V12H38.9766L38.9453 11.1641ZM43.9141 3.54688L43.9531 4.48438C44.5729 3.75521 45.4089 3.39062 46.4609 3.39062C47.6432 3.39062 48.4479 3.84375 48.875 4.75C49.1562 4.34375 49.5208 4.01562 49.9688 3.76562C50.4219 3.51562 50.9557 3.39062 51.5703 3.39062C53.4245 3.39062 54.3672 4.3724 54.3984 6.33594V12H52.9531V6.42188C52.9531 5.81771 52.8151 5.36719 52.5391 5.07031C52.263 4.76823 51.7995 4.61719 51.1484 4.61719C50.612 4.61719 50.1667 4.77865 49.8125 5.10156C49.4583 5.41927 49.2526 5.84896 49.1953 6.39062V12H47.7422V6.46094C47.7422 5.23177 47.1406 4.61719 45.9375 4.61719C44.9896 4.61719 44.3411 5.02083 43.9922 5.82812V12H42.5469V3.54688H43.9141ZM60.0938 12.1562C58.9479 12.1562 58.0156 11.7812 57.2969 11.0312C56.5781 10.276 56.2188 9.26823 56.2188 8.00781V7.74219C56.2188 6.90365 56.3776 6.15625 56.6953 5.5C57.0182 4.83854 57.4661 4.32292 58.0391 3.95312C58.6172 3.57812 59.2422 3.39062 59.9141 3.39062C61.013 3.39062 61.8672 3.7526 62.4766 4.47656C63.0859 5.20052 63.3906 6.23698 63.3906 7.58594V8.1875H57.6641C57.6849 9.02083 57.9271 9.69531 58.3906 10.2109C58.8594 10.7214 59.4531 10.9766 60.1719 10.9766C60.6823 10.9766 61.1146 10.8724 61.4688 10.6641C61.8229 10.4557 62.1328 10.1797 62.3984 9.83594L63.2812 10.5234C62.5729 11.612 61.5104 12.1562 60.0938 12.1562ZM59.9141 4.57812C59.3307 4.57812 58.8411 4.79167 58.4453 5.21875C58.0495 5.64062 57.8047 6.23438 57.7109 7H61.9453V6.89062C61.9036 6.15625 61.7057 5.58854 61.3516 5.1875C60.9974 4.78125 60.5182 4.57812 59.9141 4.57812ZM69.1562 4.84375C68.9375 4.80729 68.7005 4.78906 68.4453 4.78906C67.4974 4.78906 66.8542 5.19271 66.5156 6V12H65.0703V3.54688H66.4766L66.5 4.52344C66.974 3.76823 67.6458 3.39062 68.5156 3.39062C68.7969 3.39062 69.0104 3.42708 69.1562 3.5V4.84375Z" fill="#F9DF5F"/>
</svg>

<!--LPA-->
<svg x="475" y="415" width="28" height="12" viewBox="0 0 28 12" fill="none" xmlns="http://www.w3.org/2000/svg">
<path d="M2.29688 10.7734H7.6875V12H0.789062V0.625H2.29688V10.7734ZM10.8984 7.54688V12H9.39844V0.625H13.5938C14.8385 0.625 15.8125 0.942708 16.5156 1.57812C17.224 2.21354 17.5781 3.05469 17.5781 4.10156C17.5781 5.20573 17.2318 6.05729 16.5391 6.65625C15.8516 7.25 14.8646 7.54688 13.5781 7.54688H10.8984ZM10.8984 6.32031H13.5938C14.3958 6.32031 15.0104 6.13281 15.4375 5.75781C15.8646 5.3776 16.0781 4.83073 16.0781 4.11719C16.0781 3.4401 15.8646 2.89844 15.4375 2.49219C15.0104 2.08594 14.4245 1.875 13.6797 1.85938H10.8984V6.32031ZM24.6953 9.03125H19.9297L18.8594 12H17.3125L21.6562 0.625H22.9688L27.3203 12H25.7812L24.6953 9.03125ZM20.3828 7.79688H24.25L22.3125 2.47656L20.3828 7.79688Z" fill="#F9DF5F"/>
</svg>

<!--SM-DP+-->
<svg x="227" y="295" width="58" height="13" viewBox="0 0 58 13" fill="none" xmlns="http://www.w3.org/2000/svg">
<path d="M4.89062 6.92969C3.60417 6.5599 2.66667 6.10677 2.07812 5.57031C1.49479 5.02865 1.20312 4.36198 1.20312 3.57031C1.20312 2.67448 1.5599 1.9349 2.27344 1.35156C2.99219 0.763021 3.92448 0.46875 5.07031 0.46875C5.85156 0.46875 6.54688 0.619792 7.15625 0.921875C7.77083 1.22396 8.24479 1.64062 8.57812 2.17188C8.91667 2.70312 9.08594 3.28385 9.08594 3.91406H7.57812C7.57812 3.22656 7.35938 2.6875 6.92188 2.29688C6.48438 1.90104 5.86719 1.70312 5.07031 1.70312C4.33073 1.70312 3.7526 1.86719 3.33594 2.19531C2.92448 2.51823 2.71875 2.96875 2.71875 3.54688C2.71875 4.01042 2.91406 4.40365 3.30469 4.72656C3.70052 5.04427 4.36979 5.33594 5.3125 5.60156C6.26042 5.86719 7 6.16146 7.53125 6.48438C8.06771 6.80208 8.46354 7.17448 8.71875 7.60156C8.97917 8.02865 9.10938 8.53125 9.10938 9.10938C9.10938 10.0312 8.75 10.7708 8.03125 11.3281C7.3125 11.8802 6.35156 12.1562 5.14844 12.1562C4.36719 12.1562 3.63802 12.0078 2.96094 11.7109C2.28385 11.4089 1.76042 10.9974 1.39062 10.4766C1.02604 9.95573 0.84375 9.36458 0.84375 8.70312H2.35156C2.35156 9.39062 2.60417 9.9349 3.10938 10.3359C3.61979 10.7318 4.29948 10.9297 5.14844 10.9297C5.9401 10.9297 6.54688 10.7682 6.96875 10.4453C7.39062 10.1224 7.60156 9.68229 7.60156 9.125C7.60156 8.56771 7.40625 8.13802 7.01562 7.83594C6.625 7.52865 5.91667 7.22656 4.89062 6.92969ZM12.9766 0.625L16.6953 9.90625L20.4141 0.625H22.3594V12H20.8594V7.57031L21 2.78906L17.2656 12H16.1172L12.3906 2.8125L12.5391 7.57031V12H11.0391V0.625H12.9766ZM27.7891 7.75781H23.9766V6.57812H27.7891V7.75781ZM29.4297 12V0.625H32.6406C33.6302 0.625 34.5052 0.84375 35.2656 1.28125C36.026 1.71875 36.612 2.34115 37.0234 3.14844C37.4401 3.95573 37.651 4.88281 37.6562 5.92969V6.65625C37.6562 7.72917 37.4479 8.66927 37.0312 9.47656C36.6198 10.2839 36.0286 10.9036 35.2578 11.3359C34.4922 11.7682 33.599 11.9896 32.5781 12H29.4297ZM30.9297 1.85938V10.7734H32.5078C33.6641 10.7734 34.5625 10.4141 35.2031 9.69531C35.849 8.97656 36.1719 7.95312 36.1719 6.625V5.96094C36.1719 4.66927 35.8672 3.66667 35.2578 2.95312C34.6536 2.23438 33.7943 1.86979 32.6797 1.85938H30.9297ZM41.4297 7.54688V12H39.9297V0.625H44.125C45.3698 0.625 46.3438 0.942708 47.0469 1.57812C47.7552 2.21354 48.1094 3.05469 48.1094 4.10156C48.1094 5.20573 47.763 6.05729 47.0703 6.65625C46.3828 7.25 45.3958 7.54688 44.1094 7.54688H41.4297ZM41.4297 6.32031H44.125C44.9271 6.32031 45.5417 6.13281 45.9688 5.75781C46.3958 5.3776 46.6094 4.83073 46.6094 4.11719C46.6094 3.4401 46.3958 2.89844 45.9688 2.49219C45.5417 2.08594 44.9557 1.875 44.2109 1.85938H41.4297V6.32031ZM53.9375 5.89844H57.1094V7.26562H53.9375V10.8594H52.4844V7.26562H49.3125V5.89844H52.4844V2.57812H53.9375V5.89844Z" fill="#F9DF5F"/>
</svg>


</svg>
